<svg xmlns="http://www.w3.org/2000/svg" xmlns:xlink="http://www.w3.org/1999/xlink" version="1.1" x="0px" y="0px" viewBox="0 0 100 125" style="enable-background:new 0 0 100 100;" xml:space="preserve"><path d="M70.2,44.3C79,29.1,68,10,50.3,10C37,10,27.4,21,27.4,32.9c0,3.8,1,7.7,3.1,11.4l9.9,17.1l2,3.5l4.9,8.5l3,5.1l3-5.1l0,0  l4.8-8.4l0,0l2.1-3.7L70.2,44.3z M50.3,39.8c-5.3,0-9.7-4.3-9.7-9.7c0-5.3,4.3-9.6,9.7-9.6c5.3,0,9.7,4.3,9.7,9.6  C60,35.5,55.7,39.8,50.3,39.8z"/><path d="M72.5,69.4c-1.4-1.7-3.3-3.3-5.7-4.6c-0.7-0.4-1.6-0.1-1.9,0.6s-0.1,1.6,0.6,1.9c4.1,2.2,6.4,5.2,6.4,8.1  c0,2.9-2.2,5.8-6.1,8c-4.2,2.3-9.8,3.6-15.8,3.6c-6,0-11.6-1.3-15.8-3.6c-3.9-2.2-6.1-5-6.1-8c0-3.2,2.6-6.3,7.1-8.5  c0.7-0.4,1-1.2,0.7-1.9c-0.4-0.7-1.2-1-1.9-0.7c-2.7,1.3-4.8,2.9-6.3,4.7c-1.6,2-2.5,4.1-2.5,6.4c0,4,2.7,7.8,7.6,10.5  c4.6,2.6,10.7,4,17.2,4c6.5,0,12.6-1.4,17.2-4c4.9-2.7,7.6-6.5,7.6-10.5C74.7,73.4,74,71.3,72.5,69.4z"/><text x="0" y="115" fill="#000000" font-size="5px" font-weight="bold" font-family="'Helvetica Neue', Helvetica, Arial-Unicode, Arial, Sans-serif">Created by Rahmad romadoni</text><text x="0" y="120" fill="#000000" font-size="5px" font-weight="bold" font-family="'Helvetica Neue', Helvetica, Arial-Unicode, Arial, Sans-serif">from the Noun Project</text></svg>