<svg xmlns:dc="http://purl.org/dc/elements/1.1/" xmlns:cc="http://creativecommons.org/ns#" xmlns:rdf="http://www.w3.org/1999/02/22-rdf-syntax-ns#" xmlns:svg="http://www.w3.org/2000/svg" xmlns="http://www.w3.org/2000/svg" xmlns:sodipodi="http://sodipodi.sourceforge.net/DTD/sodipodi-0.dtd" xmlns:inkscape="http://www.inkscape.org/namespaces/inkscape" viewBox="0 0 100 125" version="1.1" x="0px" y="0px"><g transform="translate(0,-952.36216)"><path style="opacity:1;fill:#000000;fill-opacity:1;stroke:none;stroke-width:2;stroke-linecap:butt;stroke-linejoin:miter;stroke-miterlimit:4;stroke-dasharray:none;stroke-dashoffset:0;stroke-opacity:1" d="m 50.000107,957.36224 a 35.585729,35.585729 0 0 0 -35.585884,35.58585 35.585729,35.585729 0 0 0 23.467876,33.42511 l 12.118008,20.989 12.127813,-21.0063 A 35.585729,35.585729 0 0 0 85.585833,992.94809 35.585729,35.585729 0 0 0 50.000107,957.36224 Z m 0,9.18976 A 26.396155,26.396155 0 0 1 76.396149,992.94809 26.396155,26.396155 0 0 1 50.000107,1019.3442 26.396155,26.396155 0 0 1 23.603906,992.94809 26.396155,26.396155 0 0 1 50.000107,966.552 Z"/><path style="" d="m 40.170729,983.17928 -3.715529,7.02269 -1.532106,0 c -1.216264,0 -1.799593,0.70099 -1.825645,1.71995 l 0,4.86186 c 0,0.96079 0.507669,1.7203 1.140604,1.7203 l 31.523643,0 c 0.632936,0 1.14114,-0.75951 1.14114,-1.7203 l 0,-4.86186 c 0,-1.27916 -0.642928,-1.71997 -1.825645,-1.71997 l -1.532464,0 -3.715707,-7.02269 -19.658648,0 z m 0.860093,1.08809 17.938462,0 c 1.094388,1.9975 2.180567,4.11791 3.089196,5.9346 -0.374551,0.37155 -3.507286,0.69155 -7.792939,0.82494 -3.015142,0.0956 -5.72372,0.0804 -8.530263,0 -4.285652,-0.13335 -7.418744,-0.45339 -7.793295,-0.82494 l -0.01427,0 c 1.039248,-1.94122 2.10687,-4.098 3.102757,-5.9346 z m -5.162519,10.28483 c 0.05318,0 0.107244,0.003 0.160242,0.003 0.283366,0.006 0.589038,0.0569 0.895067,0.14045 0.152925,0.0418 0.299248,0.0837 0.43879,0.14045 0.144003,0.0587 0.277478,0.12106 0.403994,0.19308 0.247142,0.13834 0.44557,0.30106 0.61402,0.47399 0.332438,0.34582 0.485185,0.74282 0.386149,1.10551 -0.04961,0.18128 -0.161847,0.33063 -0.315843,0.45656 -0.07691,0.063 -0.165416,0.12789 -0.263381,0.17566 -0.295322,0.13893 -0.66898,0.22012 -1.088142,0.21051 -0.140969,-0.003 -0.289969,-0.0306 -0.43879,-0.0526 -0.149178,-0.0221 -0.30353,-0.0461 -0.456456,-0.0878 -1.224115,-0.33429 -2.058512,-1.18769 -1.860441,-1.91302 0.01856,-0.0679 0.05336,-0.13225 0.08779,-0.1931 0.02445,-0.0428 0.05603,-0.0841 0.08779,-0.12301 0.01249,-0.0162 0.02034,-0.037 0.03497,-0.0526 0.01784,-0.0186 0.03355,-0.035 0.05246,-0.0526 0.02677,-0.0247 0.05817,-0.0473 0.08797,-0.0701 0.01606,-0.0127 0.03462,-0.0231 0.05246,-0.0352 0.05282,-0.0366 0.115095,-0.0746 0.175766,-0.10527 0.148107,-0.0724 0.322624,-0.12223 0.508739,-0.15786 0.09315,-0.0178 0.180584,-0.0446 0.281047,-0.0526 l 0,0 c 0.05014,-0.004 0.102604,-0.004 0.15578,-0.003 z m 28.102902,0.003 0,0 c 0.212525,-0.004 0.410417,0.0169 0.596711,0.0526 0.186116,0.0356 0.360632,0.0855 0.50874,0.15788 0.03444,0.0173 0.07388,0.0334 0.105638,0.0526 0.03569,0.021 0.07298,0.0472 0.105281,0.0704 0.02213,0.0162 0.04961,0.0353 0.07013,0.0526 0.03337,0.0282 0.05889,0.0568 0.08779,0.0878 0.01249,0.0134 0.02373,0.021 0.03515,0.0349 0.03551,0.0422 0.06067,0.0936 0.08744,0.14045 0.0036,0.007 0.01428,0.0109 0.01784,0.0179 0.02944,0.0548 0.05353,0.11474 0.07013,0.1753 0.198071,0.72533 -0.636326,1.57907 -1.860441,1.91337 -0.77212,0.21086 -1.510872,0.17428 -2.000875,-0.0704 -0.0944,-0.0455 -0.170769,-0.11623 -0.246072,-0.17566 -0.153817,-0.12591 -0.266236,-0.27492 -0.315665,-0.4562 -0.09904,-0.3627 0.05353,-0.76002 0.38615,-1.10586 0.163275,-0.1699 0.374372,-0.33696 0.614377,-0.47364 0.123661,-0.0692 0.264095,-0.13633 0.403637,-0.19308 0.139007,-0.0567 0.285686,-0.0987 0.43879,-0.14045 0.306029,-0.0836 0.611701,-0.13456 0.894889,-0.14045 z" fill="#000000" fill-opacity="1" stroke="none"/><path style="" d="m 36.291926,999.01328 c -0.632936,0 -1.134359,0.12284 -1.140961,0.54412 -0.0071,0.40816 0.481437,0.5476 1.08832,0.5617 0.405064,1.1599 0.292467,2.3527 1.281038,2.5976 l 2.562612,0 c 0.621694,0 1.143103,-1.106 1.281396,-2.5977 l 17.271266,0 c 0.138293,1.4917 0.659523,2.5977 1.281217,2.5977 l 2.562612,0 c 1.014088,-0.2462 1.201631,-1.7988 1.281217,-2.5976 0.606882,-0.014 1.094744,-0.15351 1.08832,-0.56166 -0.0071,-0.42128 -0.508026,-0.54412 -1.140961,-0.54412 l -4.756562,0 -17.903131,0 -4.75674,0 z" fill="#000000" fill-opacity="1" stroke="none"/></g><text x="0" y="115" fill="#000000" font-size="5px" font-weight="bold" font-family="'Helvetica Neue', Helvetica, Arial-Unicode, Arial, Sans-serif">Created by P Thanga Vignesh</text><text x="0" y="120" fill="#000000" font-size="5px" font-weight="bold" font-family="'Helvetica Neue', Helvetica, Arial-Unicode, Arial, Sans-serif">from the Noun Project</text></svg>