<svg xmlns="http://www.w3.org/2000/svg" data-name="Layer 1" viewBox="0 0 100 125" x="0px" y="0px"><title>Artboard 2</title><path d="M50,80c16.53,0,29-6.88,29-16,0-7.16-7.69-12.94-19-15.09v6.18c7.84,1.79,13,5.5,13,8.91,0,4.72-9.84,10-23,10S27,68.72,27,64c0-3.42,5.16-7.13,13-8.91V48.91C28.69,51.06,21,56.84,21,64,21,73.12,33.47,80,50,80Z"/><path d="M47,41.57V66h6V41.57a11,11,0,1,0-6,0ZM50,26a5,5,0,1,1-5,5A5,5,0,0,1,50,26Z"/><text x="0" y="115" fill="#000000" font-size="5px" font-weight="bold" font-family="'Helvetica Neue', Helvetica, Arial-Unicode, Arial, Sans-serif">Created by Gregor Cresnar</text><text x="0" y="120" fill="#000000" font-size="5px" font-weight="bold" font-family="'Helvetica Neue', Helvetica, Arial-Unicode, Arial, Sans-serif">from the Noun Project</text></svg>