<svg xmlns="http://www.w3.org/2000/svg" xmlns:xlink="http://www.w3.org/1999/xlink" version="1.1" x="0px" y="0px" viewBox="0 0 512 640" enable-background="new 0 0 512 512" xml:space="preserve"><path d="M496,144c-65.781,24.219-115.906,41.469-160,96c-39.281,48.594-96,65.438-160,33.406V448h-32V16c0-8.844,7.156-16,16-16  s16,7.156,16,16c35.531,51.656,97.281,63.094,160,64C432,81.406,496,144,496,144z M208,356.25v32.563  c37.75,7.719,64,24.094,64,43.188c0,26.5-50.156,48-112,48S48,458.5,48,432c0-19.094,26.25-35.469,64-43.188V356.25  C53.875,366.313,16,394.5,16,432c0,47.094,59.219,80,144,80s144-32.906,144-80C304,394.5,266.125,366.313,208,356.25z"/><text x="0" y="527" fill="#000000" font-size="5px" font-weight="bold" font-family="'Helvetica Neue', Helvetica, Arial-Unicode, Arial, Sans-serif">Created by icon 54</text><text x="0" y="532" fill="#000000" font-size="5px" font-weight="bold" font-family="'Helvetica Neue', Helvetica, Arial-Unicode, Arial, Sans-serif">from the Noun Project</text></svg>