<svg xmlns:dc="http://purl.org/dc/elements/1.1/" xmlns:cc="http://creativecommons.org/ns#" xmlns:rdf="http://www.w3.org/1999/02/22-rdf-syntax-ns#" xmlns:svg="http://www.w3.org/2000/svg" xmlns="http://www.w3.org/2000/svg" xmlns:sodipodi="http://sodipodi.sourceforge.net/DTD/sodipodi-0.dtd" xmlns:inkscape="http://www.inkscape.org/namespaces/inkscape" viewBox="0 0 100 125" version="1.1" x="0px" y="0px"><g transform="translate(0,-952.36216)"><path style="opacity:1;fill:#000000;fill-opacity:1;stroke:none;stroke-width:2;stroke-linecap:butt;stroke-linejoin:miter;stroke-miterlimit:4;stroke-dasharray:none;stroke-dashoffset:0;stroke-opacity:1" d="m 50.000234,957.36223 a 35.58561,35.58561 0 0 0 -35.585765,35.58572 35.58561,35.58561 0 0 0 23.467165,33.42505 l 12.118284,20.9892 12.128088,-21.0065 a 35.58561,35.58561 0 0 0 23.457518,-33.40775 35.58561,35.58561 0 0 0 -35.58529,-35.58572 z m 0,9.18972 a 26.396067,26.396067 0 0 1 26.395954,26.396 26.396067,26.396067 0 0 1 -26.395954,26.39605 26.396067,26.396067 0 0 1 -26.396429,-26.39605 26.396067,26.396067 0 0 1 26.396429,-26.396 z"/><path style="opacity:1;fill:#000000;fill-opacity:1;stroke:none;stroke-width:3;stroke-linecap:round;stroke-linejoin:round;stroke-miterlimit:4;stroke-dasharray:none;stroke-dashoffset:0;stroke-opacity:1" d="m 38.003884,979.80192 3.382524,0 0,3.38232 -3.382524,0 z"/><path style="opacity:1;fill:#000000;fill-opacity:1;stroke:none;stroke-width:3;stroke-linecap:round;stroke-linejoin:round;stroke-miterlimit:4;stroke-dasharray:none;stroke-dashoffset:0;stroke-opacity:1" d="m 44.768931,979.80192 3.381891,0 0,3.38232 -3.381891,0 z"/><path style="opacity:1;fill:#000000;fill-opacity:1;stroke:none;stroke-width:3;stroke-linecap:round;stroke-linejoin:round;stroke-miterlimit:4;stroke-dasharray:none;stroke-dashoffset:0;stroke-opacity:1" d="m 51.533345,979.80192 3.382523,0 0,3.38232 -3.382523,0 z"/><path style="opacity:1;fill:#000000;fill-opacity:1;stroke:none;stroke-width:3;stroke-linecap:round;stroke-linejoin:round;stroke-miterlimit:4;stroke-dasharray:none;stroke-dashoffset:0;stroke-opacity:1" d="m 58.298233,979.80192 3.382049,0 0,3.38232 -3.382049,0 z"/><path style="opacity:1;fill:#000000;fill-opacity:1;stroke:none;stroke-width:3;stroke-linecap:round;stroke-linejoin:round;stroke-miterlimit:4;stroke-dasharray:none;stroke-dashoffset:0;stroke-opacity:1" d="m 41.386408,983.18424 3.382523,0 0,3.38235 -3.382523,0 z"/><path style="opacity:1;fill:#000000;fill-opacity:1;stroke:none;stroke-width:3;stroke-linecap:round;stroke-linejoin:round;stroke-miterlimit:4;stroke-dasharray:none;stroke-dashoffset:0;stroke-opacity:1" d="m 48.151296,983.18424 3.382049,0 0,3.38235 -3.382049,0 z"/><path style="opacity:1;fill:#000000;fill-opacity:1;stroke:none;stroke-width:3;stroke-linecap:round;stroke-linejoin:round;stroke-miterlimit:4;stroke-dasharray:none;stroke-dashoffset:0;stroke-opacity:1" d="m 54.915868,983.18424 3.382365,0 0,3.38235 -3.382365,0 z"/><path style="opacity:1;fill:#000000;fill-opacity:1;stroke:none;stroke-width:3;stroke-linecap:round;stroke-linejoin:round;stroke-miterlimit:4;stroke-dasharray:none;stroke-dashoffset:0;stroke-opacity:1" d="m 38.003884,986.56659 3.382524,0 0,3.38231 -3.382524,0 z"/><path style="opacity:1;fill:#000000;fill-opacity:1;stroke:none;stroke-width:3;stroke-linecap:round;stroke-linejoin:round;stroke-miterlimit:4;stroke-dasharray:none;stroke-dashoffset:0;stroke-opacity:1" d="m 44.768931,986.56659 3.381891,0 0,3.38231 -3.381891,0 z"/><path style="opacity:1;fill:#000000;fill-opacity:1;stroke:none;stroke-width:3;stroke-linecap:round;stroke-linejoin:round;stroke-miterlimit:4;stroke-dasharray:none;stroke-dashoffset:0;stroke-opacity:1" d="m 51.533345,986.56659 3.382523,0 0,3.38231 -3.382523,0 z"/><path style="opacity:1;fill:#000000;fill-opacity:1;stroke:none;stroke-width:3;stroke-linecap:round;stroke-linejoin:round;stroke-miterlimit:4;stroke-dasharray:none;stroke-dashoffset:0;stroke-opacity:1" d="m 58.298233,986.56659 3.382049,0 0,3.38231 -3.382049,0 z"/><path style="opacity:1;fill:#000000;fill-opacity:1;stroke:none;stroke-width:3;stroke-linecap:round;stroke-linejoin:round;stroke-miterlimit:4;stroke-dasharray:none;stroke-dashoffset:0;stroke-opacity:1" d="m 41.386408,989.94895 3.382523,0 0,3.38232 -3.382523,0 z"/><path style="opacity:1;fill:#000000;fill-opacity:1;stroke:none;stroke-width:3;stroke-linecap:round;stroke-linejoin:round;stroke-miterlimit:4;stroke-dasharray:none;stroke-dashoffset:0;stroke-opacity:1" d="m 48.151296,989.94895 3.382049,0 0,3.38232 -3.382049,0 z"/><path style="opacity:1;fill:#000000;fill-opacity:1;stroke:none;stroke-width:3;stroke-linecap:round;stroke-linejoin:round;stroke-miterlimit:4;stroke-dasharray:none;stroke-dashoffset:0;stroke-opacity:1" d="m 54.915868,989.94895 3.382365,0 0,3.38232 -3.382365,0 z"/><path style="opacity:1;fill:#000000;fill-opacity:1;stroke:none;stroke-width:3;stroke-linecap:round;stroke-linejoin:round;stroke-miterlimit:4;stroke-dasharray:none;stroke-dashoffset:0;stroke-opacity:1" d="m 61.680282,983.18424 3.382366,0 0,3.38235 -3.382366,0 z"/><path style="opacity:1;fill:#000000;fill-opacity:1;stroke:none;stroke-width:3;stroke-linecap:round;stroke-linejoin:round;stroke-miterlimit:4;stroke-dasharray:none;stroke-dashoffset:0;stroke-opacity:1" d="m 61.680282,989.94895 3.382366,0 0,3.38232 -3.382366,0 z"/><path style="opacity:1;fill:#000000;fill-opacity:1;stroke:none;stroke-width:3;stroke-linecap:round;stroke-linejoin:round;stroke-miterlimit:4;stroke-dasharray:none;stroke-dashoffset:0;stroke-opacity:1" d="m 38.003884,993.33127 3.382524,0 0,3.38232 -3.382524,0 z"/><path style="opacity:1;fill:#000000;fill-opacity:1;stroke:none;stroke-width:3;stroke-linecap:round;stroke-linejoin:round;stroke-miterlimit:4;stroke-dasharray:none;stroke-dashoffset:0;stroke-opacity:1" d="m 44.768931,993.33127 3.381891,0 0,3.38232 -3.381891,0 z"/><path style="opacity:1;fill:#000000;fill-opacity:1;stroke:none;stroke-width:3;stroke-linecap:round;stroke-linejoin:round;stroke-miterlimit:4;stroke-dasharray:none;stroke-dashoffset:0;stroke-opacity:1" d="m 51.533345,993.33127 3.382523,0 0,3.38232 -3.382523,0 z"/><path style="opacity:1;fill:#000000;fill-opacity:1;stroke:none;stroke-width:3;stroke-linecap:round;stroke-linejoin:round;stroke-miterlimit:4;stroke-dasharray:none;stroke-dashoffset:0;stroke-opacity:1" d="m 58.298233,993.33127 3.382049,0 0,3.38232 -3.382049,0 z"/><path d="m 34.622152,978.1108 0,29.6742 3.466343,0 0,-29.6742 -3.466343,0 z" style="opacity:1;fill:#000000;fill-opacity:1;stroke:none;stroke-width:3;stroke-linecap:round;stroke-linejoin:round;stroke-miterlimit:4;stroke-dasharray:none;stroke-dashoffset:0;stroke-opacity:1"/><path style="color:#000000;font-style:normal;font-variant:normal;font-weight:normal;font-stretch:normal;font-size:medium;line-height:normal;font-family:sans-serif;text-indent:0;text-align:start;text-decoration:none;text-decoration-line:none;text-decoration-style:solid;text-decoration-color:#000000;letter-spacing:normal;word-spacing:normal;text-transform:none;direction:ltr;block-progression:tb;writing-mode:lr-tb;baseline-shift:baseline;text-anchor:start;white-space:normal;clip-rule:nonzero;display:inline;overflow:visible;visibility:visible;opacity:1;isolation:auto;mix-blend-mode:normal;color-interpolation:sRGB;color-interpolation-filters:linearRGB;solid-color:#000000;solid-opacity:1;fill:#000000;fill-opacity:1;fill-rule:nonzero;stroke:none;stroke-width:1.5;stroke-linecap:butt;stroke-linejoin:miter;stroke-miterlimit:4;stroke-dasharray:none;stroke-dashoffset:0;stroke-opacity:1;color-rendering:auto;image-rendering:auto;shape-rendering:auto;text-rendering:auto;enable-background:accumulate" d="m 37.688216,979.48578 0,0.31568 0,3.38208 0,3.3829 0,3.38213 0,3.38211 0,3.69861 3.697875,0 3.38284,0 3.382365,0 3.382049,0 3.382049,0 3.382839,0 3.382049,0 3.697718,0 0,-3.69861 0,-3.38211 0,-3.38213 0,-3.3829 0,-3.69776 -3.697718,0 -3.382049,0 -3.382839,0 -3.382049,0 -3.382049,0 -3.382365,0 -3.38284,0 -3.697875,0 z m 0.631495,0.63138 3.06638,0 3.38284,0 3.382365,0 3.382049,0 3.382049,0 3.382839,0 3.382049,0 3.066223,0 0,3.06638 0,3.3829 0,3.38213 0,3.38211 0,3.06724 -3.066223,0 -3.382049,0 -3.382839,0 -3.382049,0 -3.382049,0 -3.382365,0 -3.38284,0 -3.06638,0 0,-3.06724 0,-3.38211 0,-3.38213 0,-3.3829 0,-3.06638 z"/></g><text x="0" y="115" fill="#000000" font-size="5px" font-weight="bold" font-family="'Helvetica Neue', Helvetica, Arial-Unicode, Arial, Sans-serif">Created by P Thanga Vignesh</text><text x="0" y="120" fill="#000000" font-size="5px" font-weight="bold" font-family="'Helvetica Neue', Helvetica, Arial-Unicode, Arial, Sans-serif">from the Noun Project</text></svg>