<?xml version="1.0" encoding="UTF-8"?><svg id="icon" xmlns="http://www.w3.org/2000/svg" viewBox="0 0 136 136"><defs><style>.cls-1{fill:#1d1d1b;}.cls-2{fill-rule:evenodd;stroke-miterlimit:10;}.cls-2,.cls-3{fill:none;stroke:#1d1d1b;stroke-width:6px;}.cls-3{stroke-linecap:round;stroke-linejoin:round;}</style></defs><path class="cls-2" d="M60.79,19.6L15.33,109.33c-2.97,5.46,.94,12.14,7.1,12.14H113.82c6.16,0,10.07-6.68,7.1-12.14L75.08,19.6c-3.05-5.61-11.25-5.61-14.3,0Z"/><g><path class="cls-3" d="M51.48,77.97h33.32c1.89,0,3.42,1.53,3.42,3.42v12.14c0,.95-.77,1.71-1.71,1.71H49.77c-.95,0-1.71-.77-1.71-1.71v-12.14c0-1.89,1.53-3.42,3.42-3.42Z"/><path class="cls-3" d="M51.03,77.33l4.23-7.45c1.06-2.53,3.48-4.18,6.16-4.18h13.83c2.67,0,5.09,1.64,6.15,4.16l3.89,7.43"/><path class="cls-1" d="M59.71,87.56c0,1.89-1.56,1.77-3.48,1.77s-3.48,.12-3.48-1.77,1.56-3.43,3.48-3.43,3.48,1.54,3.48,3.43Z"/><path class="cls-1" d="M83.53,87.53c0,1.88-1.52,1.76-3.39,1.76s-3.39,.12-3.39-1.76,1.52-3.4,3.39-3.4,3.39,1.52,3.39,3.4Z"/><path class="cls-1" d="M48.68,99.94h8.31c.31,0,.57,.25,.57,.57v2.44c0,.95-.77,1.71-1.71,1.71h-6.02c-.95,0-1.71-.77-1.71-1.71v-2.44c0-.31,.25-.57,.57-.57Z"/><path class="cls-1" d="M79.26,99.99h8.31c.31,0,.57,.25,.57,.57v2.44c0,.95-.77,1.71-1.71,1.71h-6.02c-.95,0-1.71-.77-1.71-1.71v-2.44c0-.31,.25-.57,.57-.57Z"/></g></svg>