<?xml version="1.0" encoding="UTF-8"?><svg id="icon" xmlns="http://www.w3.org/2000/svg" viewBox="0 0 136 136"><defs><style>.cls-1{fill:none;stroke:#000;stroke-linecap:round;stroke-linejoin:round;stroke-width:6px;}</style></defs><g id="Music-Audio___Volume-Controls___volume-control-full"><g id="Group_189"><g id="volume-control-full"><path id="Shape_955" class="cls-1" d="M78.14,40.47c-2.34-.96-5.14-.75-7.24,.54l-30.41,15.87h-13.82c-3.82,0-6.91,2.54-6.91,5.67v11.34c0,3.13,3.09,5.67,6.91,5.67h13.82l30.41,15.87c2.09,1.29,4.9,1.5,7.24,.54,2.34-.96,3.82-2.92,3.82-5.07V45.55c0-2.15-1.48-4.11-3.82-5.07Z"/><path id="Shape_956" class="cls-1" d="M111.74,82.39c6.37-8.18,6.37-18.65,0-26.83"/><path id="Shape_957" class="cls-1" d="M98.37,77.46c4.8-4.85,4.8-11.8,0-16.65"/><path id="Shape_958" class="cls-1" d="M40.49,56.88v22.67"/></g></g></g></svg>