<?xml version="1.0" encoding="UTF-8"?><svg id="icon" xmlns="http://www.w3.org/2000/svg" viewBox="0 0 136 136"><defs><style>.cls-1{fill:none;stroke:#1d1d1b;stroke-linecap:round;stroke-linejoin:round;stroke-width:6px;}</style></defs><g id="Business-Products___Business-Deals___business-deal-handshake"><g id="Group_40"><g id="business-deal-handshake"><path id="Shape_232" class="cls-1" d="M103.09,77.4l-22.01,4.21"/><path id="Shape_233" class="cls-1" d="M78.03,52.39l-14.8,4.89c-2.37,.78-4.95-.34-5.99-2.61-1.13-2.43-.13-5.32,2.26-6.53l14.33-7.21c2.47-1.25,5.34-1.41,7.94-.46l21.22,7.76"/><path id="Shape_234" class="cls-1" d="M32.25,77.43h10.43l14.98,16.79c1.56,1.81,4.09,2.46,6.33,1.63,2.24-.83,3.73-2.97,3.73-5.36v-2.62l.75,.3c2.18,.87,4.64,.6,6.58-.71,1.94-1.31,3.1-3.5,3.1-5.85h2.09c2.37,0,4.54-1.34,5.6-3.46,1.06-2.12,.83-4.66-.59-6.55l-13.39-17.16"/><path id="Shape_235" class="cls-1" d="M61.67,47.05l-1.53-1.26c-1.54-1.13-3.4-1.74-5.31-1.74-1.14,0-2.27,.22-3.32,.64l-18.99,7.59"/><path id="Shape_236" class="cls-1" d="M19.72,45.02h8.53c2.26-.09,4.16,1.65,4.27,3.91v27.38c-.1,2.26-2.01,4-4.27,3.91h-8.53"/><path id="Shape_237" class="cls-1" d="M115.71,80.21h-8.53c-2.26,.09-4.16-1.66-4.27-3.91v-27.38c.1-2.25,2.01-4,4.27-3.91h8.53"/><path id="Shape_238" class="cls-1" d="M67.72,87.87l-4.17-4.17"/><path id="Shape_239" class="cls-1" d="M78.15,81.61l-6.26-6.26"/></g></g></g></svg>