<?xml version="1.0" encoding="UTF-8"?><svg id="icon" xmlns="http://www.w3.org/2000/svg" viewBox="0 0 136 136"><defs><style>.cls-1{fill:none;stroke:#1d1d1b;stroke-linecap:round;stroke-linejoin:round;stroke-width:6px;}</style></defs><g id="Transportation___Scooters_Bikes___scooter-sport"><g id="Group_15"><g id="scooter-sport"><path id="Oval_22" class="cls-1" d="M96.4,117.53c5.56,0,10.06-4.5,10.06-10.06s-4.5-10.06-10.06-10.06-10.06,4.5-10.06,10.06,4.5,10.06,10.06,10.06Z"/><path id="Shape_83" class="cls-1" d="M88.45,68.53l-52.41,3.74c-2.78,0-5.03,2.25-5.03,5.03s2.25,5.03,5.03,5.03h5.83c5.88,0,11.46,2.58,15.28,7.04l7.56,8.81c.96,1.12,2.35,1.76,3.82,1.76h5.39c1.49,0,2.91-.66,3.87-1.81l6.79-8.15c2.57-3.08,6.31-4.94,10.31-5.11,4-.18,7.9,1.34,10.73,4.18l.86,.86"/><path id="Oval_23" class="cls-1" d="M41.07,117.53c5.56,0,10.06-4.5,10.06-10.06s-4.5-10.06-10.06-10.06-10.06,4.5-10.06,10.06,4.5,10.06,10.06,10.06Z"/><path id="Shape_84" class="cls-1" d="M96.4,107.47l-10.48-51.33c-.49-2.33-2.54-3.99-4.92-3.99h-5.98"/><path id="Shape_85" class="cls-1" d="M41.07,107.47l19.24-14.43"/><path id="Shape_86" class="cls-1" d="M76.28,69.4v7.9c0,2.78-2.25,5.03-5.03,5.03h-5.46c-1.33,0-2.61-.53-3.55-1.47l-9.76-9.76"/><path id="Shape_87" class="cls-1" d="M102.69,74.78c-3.47,0-6.29-2.81-6.29-6.29s2.81-6.29,6.29-6.29h2.51v12.57h-2.51Z"/></g></g></g></svg>