<?xml version="1.0" encoding="UTF-8"?><svg id="icon" xmlns="http://www.w3.org/2000/svg" viewBox="0 0 136 136"><defs><style>.cls-1{fill:none;stroke:#1d1d1b;stroke-linecap:round;stroke-linejoin:round;stroke-width:6px;}</style></defs><g id="Interface-Essential___Help___headphones-customer-support"><g id="Group_199"><g id="headphones-customer-support"><path id="Shape_886" class="cls-1" d="M35.74,93.66h-3.2c-7.08,0-12.82-5.74-12.82-12.82v-12.82c0-7.08,5.74-12.82,12.82-12.82h3.2c1.77,0,3.2,1.43,3.2,3.2v32.04c0,1.77-1.43,3.2-3.2,3.2Z"/><path id="Shape_887" class="cls-1" d="M103.02,93.66h-3.2c-1.77,0-3.2-1.43-3.2-3.2V58.42c0-1.77,1.43-3.2,3.2-3.2h3.2c7.08,0,12.82,5.74,12.82,12.82v12.82c0,7.08-5.74,12.82-12.82,12.82Z"/><path id="Shape_888" class="cls-1" d="M32.54,55.22c0-19.46,15.78-35.24,35.24-35.24h0c9.35,0,18.31,3.71,24.92,10.32,6.61,6.61,10.32,15.57,10.32,24.92"/><path id="Shape_889" class="cls-1" d="M80.6,109.68h9.61c7.08,0,12.82-5.74,12.82-12.82h0v-3.2"/><path id="Shape_890" class="cls-1" d="M74.19,116.09h-6.41c-3.54,0-6.41-2.87-6.41-6.41h0c0-3.54,2.87-6.41,6.41-6.41h6.41c3.54,0,6.41,2.87,6.41,6.41h0c0,3.54-2.87,6.41-6.41,6.41Z"/></g></g></g></svg>