<?xml version="1.0" encoding="UTF-8"?><svg id="icon" xmlns="http://www.w3.org/2000/svg" viewBox="0 0 136 136"><defs><style>.cls-1{fill:none;stroke:#000;stroke-linecap:round;stroke-linejoin:round;stroke-width:6px;}</style></defs><g id="Interface-Essential___Expand_Retract___expand-5"><g id="Group_748"><g id="expand-5"><path id="Shape_3111" class="cls-1" d="M42.21,93.79l-22.57,22.57"/><path id="Shape_3112" class="cls-1" d="M116.36,45.43V19.64h-25.79"/><path id="Shape_3113" class="cls-1" d="M19.64,90.57v25.79h25.79"/><path id="Shape_3114" class="cls-1" d="M116.36,19.64l-22.57,22.57"/><path id="Shape_3115" class="cls-1" d="M93.79,93.79l22.57,22.57"/><path id="Shape_3116" class="cls-1" d="M19.64,45.43V19.64h25.79"/><path id="Shape_3117" class="cls-1" d="M116.36,90.57v25.79h-25.79"/><path id="Shape_3118" class="cls-1" d="M19.64,19.64l22.57,22.57"/><path id="Rectangle-path_247" class="cls-1" d="M51.88,55.1c0-1.78,1.44-3.22,3.22-3.22h25.79c1.78,0,3.22,1.44,3.22,3.22v25.79c0,1.78-1.44,3.22-3.22,3.22h-25.79c-1.78,0-3.22-1.44-3.22-3.22v-25.79Z"/></g></g></g></svg>