<?xml version="1.0" encoding="UTF-8"?><svg id="icon" xmlns="http://www.w3.org/2000/svg" viewBox="0 0 136 136"><defs><style>.cls-1{fill:none;stroke:#1d1d1b;stroke-linecap:round;stroke-linejoin:round;stroke-width:6px;}</style></defs><path id="Oval_134" class="cls-1" d="M98.46,118.18c4.95,0,8.96-4.01,8.96-8.96s-4.01-8.96-8.96-8.96-8.96,4.01-8.96,8.96,4.01,8.96,8.96,8.96Z"/><path id="Oval_135" class="cls-1" d="M23.24,118.18c4.95,0,8.96-4.01,8.96-8.96s-4.01-8.96-8.96-8.96-8.96,4.01-8.96,8.96,4.01,8.96,8.96,8.96Z"/><path id="Oval_136" class="cls-1" d="M41.15,118.18c4.95,0,8.96-4.01,8.96-8.96s-4.01-8.96-8.96-8.96-8.96,4.01-8.96,8.96,4.01,8.96,8.96,8.96Z"/><path id="Shape_766" class="cls-1" d="M68.02,107.44v-14.33h46.57c3.96,0,7.16,3.21,7.16,7.16s-3.21,7.16-7.16,7.16h-7.34"/><path id="Shape_767" class="cls-1" d="M118.17,94.06v-29.61c0-11.87-9.62-21.49-21.49-21.49h-28.66v50.15"/><path id="Shape_768" class="cls-1" d="M68.02,42.97V26.53c0-2.18,.99-4.24,2.69-5.6,1.7-1.36,3.93-1.87,6.05-1.39,7.6,1.71,17.74,4.74,19.92,9.1,2.05,4.52,3.26,9.38,3.58,14.33v.3"/><path id="Shape_769" class="cls-1" d="M53.69,85.94H14.28"/><path id="Shape_770" class="cls-1" d="M118.17,75.2h-50.15"/><path id="Shape_771" class="cls-1" d="M89.51,42.96v32.24"/><path id="Shape_772" class="cls-1" d="M53.69,93.11V25.05c0-3.96-3.21-7.16-7.16-7.16H14.28"/><path id="Shape_773" class="cls-1" d="M89.69,107.44H49.92"/></svg>