<?xml version="1.0" encoding="UTF-8"?><svg id="icon" xmlns="http://www.w3.org/2000/svg" viewBox="0 0 136 136"><defs><style>.cls-1{fill:none;stroke:#1d1d1b;stroke-linecap:round;stroke-linejoin:round;stroke-width:6px;}</style></defs><g id="Transportation___Roads_Lights___road-woods"><g id="Group_212"><g id="road-woods"><path id="Shape_1664" class="cls-1" d="M106.11,64.25l-12.34,33.94h24.69l-12.34-33.94h0Z"/><path id="Shape_1665" class="cls-1" d="M106.11,98.2v12.34"/><path id="Shape_1666" class="cls-1" d="M38.22,17.97l-12.34,33.94h24.69l-12.34-33.94h0Z"/><path id="Shape_1667" class="cls-1" d="M38.22,51.91v12.34"/><path id="Shape_1668" class="cls-1" d="M27.32,110.54c7.43-39.37,41.82-67.88,81.88-67.89"/><path id="Shape_1669" class="cls-1" d="M68.83,110.54c3.46-9.02,9.83-16.62,18.1-21.6"/><path id="Shape_1670" class="cls-1" d="M46.45,110.56c.86-4.1,2.22-8.09,4.04-11.87"/><path id="Shape_1671" class="cls-1" d="M57.3,87.29c1.16-1.65,2.45-3.21,3.84-4.67,1.31-1.54,2.73-2.98,4.26-4.3"/><path id="Shape_1672" class="cls-1" d="M76.07,70.35c3.45-2.1,7.11-3.83,10.91-5.19"/></g></g></g></svg>