<?xml version="1.0" encoding="UTF-8"?><svg id="icon" xmlns="http://www.w3.org/2000/svg" viewBox="0 0 136 136"><defs><style>.cls-1{fill:none;stroke:#1d1d1b;stroke-linecap:round;stroke-linejoin:round;stroke-width:6px;}</style></defs><g id="Transportation___Dashboard-Symbols___car-dashboard-speed"><g id="Group_150"><g id="car-dashboard-speed"><path id="Oval_177" class="cls-1" d="M68.09,120.94c29.37,0,53.17-23.81,53.17-53.17S97.46,14.59,68.09,14.59,14.92,38.4,14.92,67.76s23.81,53.17,53.17,53.17Z"/><path id="Oval_178" class="cls-1" d="M68.09,71.31c3.92,0,7.09-3.17,7.09-7.09s-3.17-7.09-7.09-7.09-7.09,3.17-7.09,7.09,3.17,7.09,7.09,7.09Z"/><path id="Shape_1141" class="cls-1" d="M89.36,92.58c0,3.92-3.17,7.09-7.09,7.09h-28.36c-3.92,0-7.09-3.17-7.09-7.09s3.17-7.09,7.09-7.09h28.36c3.92,0,7.09,3.17,7.09,7.09Z"/><path id="Shape_1142" class="cls-1" d="M54.75,27.59l2.42,6.66"/><path id="Shape_1143" class="cls-1" d="M34.32,44.7l6.14,3.54"/><path id="Shape_1144" class="cls-1" d="M29.69,70.98l6.99-1.23"/><path id="Shape_1145" class="cls-1" d="M81.43,27.59l-2.42,6.66"/><path id="Shape_1146" class="cls-1" d="M101.86,44.7l-27.63,15.95"/><path id="Shape_1147" class="cls-1" d="M106.5,70.98l-6.99-1.23"/></g></g></g></svg>