<?xml version="1.0" encoding="UTF-8"?><svg id="icon" xmlns="http://www.w3.org/2000/svg" viewBox="0 0 136 136"><defs><style>.cls-1{fill:none;stroke:#1d1d1b;stroke-linecap:round;stroke-linejoin:round;stroke-width:6px;}</style></defs><g id="Images-Photography___Camera-Settings___camera-settings-rotate-1"><g id="Group_92"><g id="camera-settings-rotate-1"><path id="Shape_420" class="cls-1" d="M85.8,26.9l-7.15-7.15h-21.44l-7.15,7.15h-14.29c-3.95,0-7.15,3.2-7.15,7.15v35.74c0,3.95,3.2,7.15,7.15,7.15H100.09c3.95,0,7.15-3.2,7.15-7.15V34.05c0-3.95-3.2-7.15-7.15-7.15h-14.29Z"/><path id="Oval_60" class="cls-1" d="M67.93,62.64c5.92,0,10.72-4.8,10.72-10.72s-4.8-10.72-10.72-10.72-10.72,4.8-10.72,10.72,4.8,10.72,10.72,10.72Z"/><path id="Shape_421" class="cls-1" d="M118.48,76.89c1.87,1.92,2.96,4.47,3.06,7.15,0,10.87-20.23,19.85-46.45,21.25"/><path id="Shape_422" class="cls-1" d="M46.49,91.23l7.15,14.29-10.72,10.72"/><path id="Shape_423" class="cls-1" d="M17.52,76.89c-1.87,1.92-2.96,4.47-3.06,7.15,0,9.79,16.37,18.04,38.77,20.62"/></g></g></g></svg>