<?xml version="1.0" encoding="UTF-8"?><svg id="icon" xmlns="http://www.w3.org/2000/svg" viewBox="0 0 136 136"><defs><style>.cls-1{fill:none;stroke:#1d1d1b;stroke-linecap:round;stroke-linejoin:round;stroke-width:6px;}</style></defs><path id="Shape_183" class="cls-1" d="M118,39.99c0,6.92-10.33,23.13-14,28.66-.28,.43-.76,.68-1.27,.68s-.99-.26-1.27-.68c-3.67-5.53-14-21.74-14-28.66,0-8.44,6.84-15.28,15.28-15.28s15.28,6.84,15.28,15.28Z"/><path id="Shape_192" class="cls-1" d="M43.67,52.4c10.12,0,18.33,8.21,18.33,18.33,0,7.83-10.95,22.71-15.92,29.08-.58,.74-1.47,1.17-2.41,1.17s-1.83-.43-2.41-1.17c-4.97-6.36-15.92-21.25-15.92-29.08,0-10.12,8.21-18.33,18.33-18.33Z"/><path id="Shape_193" class="cls-1" d="M42.94,111.58h36.66c3.37,0,6.11-2.74,6.11-6.11v-18.33c0-3.37,2.74-6.11,6.11-6.11h12.22"/><path id="Shape_350" class="cls-1" d="M62.8,46.46c-10.74-10.74-28.16-10.74-38.9,0"/><path id="Shape_351" class="cls-1" d="M69.13,35.53c-14.53-13.54-37.05-13.54-51.58,0"/><circle class="cls-1" cx="102.72" cy="40.09" r="2.04"/><circle class="cls-1" cx="43.67" cy="70.53" r="2.04"/></svg>