<?xml version="1.0" encoding="UTF-8"?><svg id="icon" xmlns="http://www.w3.org/2000/svg" viewBox="0 0 136 136"><defs><style>.cls-1{fill:none;stroke:#1d1d1b;stroke-linecap:round;stroke-linejoin:round;stroke-width:6px;}</style></defs><path id="Oval_179" class="cls-1" d="M68,121.64c29.62,0,53.64-24.02,53.64-53.64S97.62,14.36,68,14.36,14.36,38.38,14.36,68s24.02,53.64,53.64,53.64Z"/><path class="cls-1" d="M29.3,75.03c2.69,14.89,13.76,26.87,28.16,30.86,2.82-23.71-10.92-34-28.16-30.86Z"/><path class="cls-1" d="M78.54,105.9c14.4-4,25.46-15.97,28.15-30.86-17.23-3.13-30.97,7.16-28.15,30.86Z"/><path id="Shape_1151" class="cls-1" d="M68,68c.99,0,1.79,.8,1.79,1.79"/><path id="Shape_1152" class="cls-1" d="M66.21,69.79c0-.99,.8-1.79,1.79-1.79"/><path id="Shape_1153" class="cls-1" d="M68,71.6c-.99,0-1.79-.8-1.79-1.79"/><path id="Shape_1154" class="cls-1" d="M69.79,69.81c0,.99-.8,1.79-1.79,1.79"/><path class="cls-1" d="M106.61,60.49c-3.51-18.13-19.46-31.83-38.61-31.83s-35.07,13.66-38.6,31.76c12.38-4.31,25.38-6.59,38.51-6.73,13.19,.14,26.27,2.44,38.71,6.8Z"/></svg>