<?xml version="1.0" encoding="UTF-8"?><svg id="icon" xmlns="http://www.w3.org/2000/svg" viewBox="0 0 136 136"><defs><style>.cls-1{fill:none;stroke:#1d1d1b;stroke-linecap:round;stroke-linejoin:round;stroke-width:6px;}</style></defs><g id="Phones-Mobile-Devices___Signal___signal-full"><g id="Group_147"><g id="signal-full"><path id="Rectangle-path_36" class="cls-1" d="M96.68,35.04c0-3.53,2.87-6.4,6.4-6.4h6.4c3.53,0,6.4,2.87,6.4,6.4v63.99c0,3.53-2.87,6.4-6.4,6.4h-6.4c-3.53,0-6.4-2.87-6.4-6.4V35.04Z"/><path id="Rectangle-path_37" class="cls-1" d="M58.29,60.64c0-3.53,2.87-6.4,6.4-6.4h6.4c3.53,0,6.4,2.87,6.4,6.4v38.4c0,3.53-2.87,6.4-6.4,6.4h-6.4c-3.53,0-6.4-2.87-6.4-6.4V60.64Z"/><path id="Rectangle-path_38" class="cls-1" d="M19.89,86.23c0-3.53,2.87-6.4,6.4-6.4h6.4c3.53,0,6.4,2.87,6.4,6.4v12.8c0,3.53-2.87,6.4-6.4,6.4h-6.4c-3.53,0-6.4-2.87-6.4-6.4v-12.8Z"/></g></g></g></svg>