<?xml version="1.0" encoding="UTF-8"?><svg id="icon" xmlns="http://www.w3.org/2000/svg" viewBox="0 0 136 136"><defs><style>.cls-1{fill:none;stroke:#1d1d1b;stroke-linecap:round;stroke-linejoin:round;stroke-width:6px;}</style></defs><g id="Transportation___Signs___road-sign-speed-limit-90"><g id="Group_338"><g id="road-sign-speed-limit-90"><path id="Shape_2247" class="cls-1" d="M89.38,75.13c0,3.94-3.19,7.13-7.13,7.13s-7.13-3.19-7.13-7.13v-14.26c0-3.94,3.19-7.13,7.13-7.13s7.13,3.19,7.13,7.13v14.26Z"/><path id="Oval_285" class="cls-1" d="M68,121.46c29.53,0,53.46-23.94,53.46-53.46S97.53,14.54,68,14.54,14.54,38.47,14.54,68s23.94,53.46,53.46,53.46Z"/><path id="Shape_2248" class="cls-1" d="M60.87,60.87v10.69c0,5.9-4.79,10.69-10.69,10.69h0"/><path id="Oval_286" class="cls-1" d="M53.74,68c3.94,0,7.13-3.19,7.13-7.13s-3.19-7.13-7.13-7.13-7.13,3.19-7.13,7.13,3.19,7.13,7.13,7.13Z"/></g></g></g></svg>