<?xml version="1.0" encoding="UTF-8"?><svg id="icon" xmlns="http://www.w3.org/2000/svg" viewBox="0 0 136 136"><defs><style>.cls-1{fill:#1d1d1b;}.cls-2{fill:none;stroke:#1d1d1b;stroke-linecap:round;stroke-linejoin:round;stroke-width:6px;}</style></defs><path class="cls-2" d="M39.66,75.18h57.1c3.24,0,5.87,2.63,5.87,5.87v20.81c0,1.62-1.31,2.93-2.93,2.93H36.73c-1.62,0-2.93-1.31-2.93-2.93v-20.81c0-3.24,2.63-5.87,5.87-5.87Z"/><path class="cls-2" d="M38.89,74.08l7.25-12.77c1.81-4.34,5.96-7.16,10.55-7.16h23.7c4.58,0,8.72,2.81,10.54,7.14l6.66,12.73"/><path class="cls-1" d="M53.75,91.61c0,3.25-2.67,3.04-5.96,3.04s-5.96,.21-5.96-3.04,2.67-5.88,5.96-5.88,5.96,2.63,5.96,5.88Z"/><path class="cls-1" d="M94.57,91.55c0,3.21-2.6,3.01-5.81,3.01s-5.81,.2-5.81-3.01,2.6-5.82,5.81-5.82,5.81,2.6,5.81,5.82Z"/><path class="cls-1" d="M34.87,112.82h14.25c.53,0,.97,.43,.97,.97v4.18c0,1.62-1.31,2.93-2.93,2.93h-10.32c-1.62,0-2.93-1.31-2.93-2.93v-4.18c0-.53,.43-.97,.97-.97Z"/><path class="cls-1" d="M87.26,112.9h14.25c.53,0,.97,.43,.97,.97v4.18c0,1.62-1.31,2.93-2.93,2.93h-10.32c-1.62,0-2.93-1.31-2.93-2.93v-4.18c0-.53,.43-.97,.97-.97Z"/><line class="cls-2" x1="68.21" y1="53.42" x2="68.21" y2="35.93"/><g><rect class="cls-2" x="59.05" y="21.81" width="18.6" height="12.55" rx="2.1" ry="2.1"/><g id="Transportation___Autonomus-Cars___auto-pilot-car-signal-1"><g id="Group_180"><g id="auto-pilot-car-signal-1"><path id="Shape_1329" class="cls-2" d="M40.79,38.61c-4.56-6.55-4.56-15.25,0-21.8"/><path id="Shape_1330" class="cls-2" d="M50.35,33.16c-2.78-3.1-2.78-7.8,0-10.9"/><path id="Shape_1331" class="cls-2" d="M95.64,38.91c4.56-6.55,4.56-15.25,0-21.8"/><path id="Shape_1332" class="cls-2" d="M86.08,33.46c2.78-3.1,2.78-7.8,0-10.9"/></g></g></g></g></svg>