<?xml version="1.0" encoding="UTF-8"?><svg id="icon" xmlns="http://www.w3.org/2000/svg" viewBox="0 0 136 136"><defs><style>.cls-1{fill:none;stroke:#1d1d1b;stroke-linecap:round;stroke-linejoin:round;stroke-width:6px;}</style></defs><g id="Transportation___Signs___road-sign-roundabout"><g id="Group_319"><g id="road-sign-roundabout"><path id="Shape_2198" class="cls-1" d="M112.86,78.69l7.13-7.13c1.96-1.97,1.96-5.16,0-7.13L71.57,16.02c-1.97-1.96-5.16-1.96-7.13,0l-21.38,21.38"/><path id="Shape_2199" class="cls-1" d="M23.14,57.31l-7.13,7.13c-1.96,1.97-1.96,5.16,0,7.13l48.41,48.41c1.97,1.96,5.16,1.96,7.13,0l21.38-21.38"/><path id="Shape_2200" class="cls-1" d="M92.95,85.82v-14.25h-14.25"/><path id="Shape_2201" class="cls-1" d="M43.05,50.19v14.25h14.25"/><path id="Shape_2202" class="cls-1" d="M89.02,71.57c-1.46,8.88-8.35,15.88-17.2,17.48-8.86,1.6-17.76-2.55-22.23-10.35"/><path id="Shape_2203" class="cls-1" d="M46.98,64.44c1.46-8.88,8.35-15.88,17.2-17.48,8.86-1.6,17.76,2.55,22.23,10.35"/></g></g></g></svg>