<?xml version="1.0" encoding="UTF-8"?><svg id="icon" xmlns="http://www.w3.org/2000/svg" viewBox="0 0 136 136"><defs><style>.cls-1{fill:none;stroke:#1d1d1b;stroke-linecap:round;stroke-linejoin:round;stroke-width:6px;}</style></defs><path class="cls-1" d="M29.52,116.08l.15-86.57c.01-5.23,4.26-9.46,9.49-9.45l29.02,.08c5.22,.01,9.44,4.25,9.44,9.47V115.38"/><path class="cls-1" d="M77.77,77.84l9.7,.05c5.25,.03,9.52,4.27,9.57,9.52l.02,9.65c.01,5.32,4.34,9.62,9.65,9.6h0c5.31-.02,9.6-4.33,9.59-9.64l-.07-42.09c-.01-6.83-2.72-13.38-7.53-18.22l-5.39-5.42-6.32-6.35"/><path class="cls-1" d="M116.26,72.99l-14.46-14.61c-2.94-2.97-4.01-7.32-2.8-11.32l4.51-14.86"/><line class="cls-1" x1="20.31" y1="116.3" x2="87.34" y2="116.08"/><path id="Rectangle-path_4" class="cls-1" d="M40.63,32.41h25.88v12.94h-25.88v-12.94Z"/></svg>