<?xml version="1.0" encoding="UTF-8"?><svg id="icon" xmlns="http://www.w3.org/2000/svg" viewBox="0 0 136 136"><defs><style>.cls-1{fill:none;stroke:#1d1d1b;stroke-linecap:round;stroke-linejoin:round;stroke-width:6px;}</style></defs><g id="Maps-Navigation___Pin___pin-location-1"><g id="Group_31"><g id="pin-location-1"><path id="Oval_23" class="cls-1" d="M67.91,60.39c8.4,0,15.22-6.81,15.22-15.22s-6.81-15.22-15.22-15.22-15.22,6.81-15.22,15.22,6.81,15.22,15.22,15.22Z"/><path id="Shape_118" class="cls-1" d="M67.91,10.94c18.91,0,34.24,15.33,34.24,34.24,0,16.49-26.03,53.4-32.7,62.58-.36,.49-.93,.78-1.54,.78s-1.18-.29-1.54-.78c-6.66-9.18-32.7-46.09-32.7-62.58,0-18.91,15.33-34.24,34.24-34.24Z"/><path id="Shape_119" class="cls-1" d="M98.23,97.34c13.86,2.74,22.93,7.32,22.93,12.51,0,8.4-23.84,15.22-53.26,15.22s-53.26-6.81-53.26-15.22c0-5.17,9.03-9.74,22.82-12.49"/></g></g></g></svg>