<?xml version="1.0" encoding="UTF-8"?><svg id="icon" xmlns="http://www.w3.org/2000/svg" viewBox="0 0 136 136"><defs><style>.cls-1{fill:#1d1d1b;font-family:Noway-Bold, Noway;font-size:45.16px;}.cls-2{fill:none;stroke:#1d1d1b;stroke-linecap:round;stroke-linejoin:round;stroke-width:6px;}</style></defs><text class="cls-1" transform="translate(54.33 83.84)"><tspan x="0" y="0">4</tspan></text><path class="cls-2" d="M18.91,53.13h12.43m-12.43-15.75h12.43m-12.43,47.25h12.43m-12.43,15.75h12.43m-12.43-31.5h12.43m74.63-15.75h12.43m-12.43-15.75h12.43m-12.43,47.25h12.43m-12.43,15.75h12.43m-12.43-31.5h12.43M52,118.62v-12.43m-15.75,12.43v-12.43m47.24,12.43v-12.43m15.75,12.43v-12.43m-31.5,12.43v-12.43M52,31.56v-12.43m-15.75,12.43v-12.43m47.24,12.43v-12.43m15.75,12.43v-12.43m-31.5,12.43v-12.43m38.05,86.08H32.15V31.56H105.8V105.21Z"/></svg>