<?xml version="1.0" encoding="UTF-8"?><svg id="icon" xmlns="http://www.w3.org/2000/svg" viewBox="0 0 136 136"><defs><style>.cls-1{fill:none;stroke:#1d1d1b;stroke-linecap:round;stroke-linejoin:round;stroke-width:6px;}</style></defs><path id="Rectangle-path_56" class="cls-1" d="M14.45,44.32c0-3.95,3.2-7.15,7.15-7.15H114.49c3.95,0,7.15,3.2,7.15,7.15v47.17c0,3.95-3.2,7.15-7.15,7.15H21.6c-3.95,0-7.15-3.2-7.15-7.15V44.32Z"/><path id="Shape_218" class="cls-1" d="M58.14,85.2l14.16-34.4-34.4,14.17,14.17,6.07,6.07,14.16h0Z"/><line class="cls-1" x1="96" y1="37.18" x2="96" y2="96.33"/><g><path id="Shape_1151" class="cls-1" d="M108.67,66.2c.99,0,1.79,.8,1.79,1.79"/><path id="Shape_1152" class="cls-1" d="M106.88,67.99c0-.99,.8-1.79,1.79-1.79"/><path id="Shape_1153" class="cls-1" d="M108.67,69.8c-.99,0-1.79-.8-1.79-1.79"/><path id="Shape_1154" class="cls-1" d="M110.45,68.01c0,.99-.8,1.79-1.79,1.79"/></g><g><path id="Shape_1151-2" class="cls-1" d="M108.67,50.2c.99,0,1.79,.8,1.79,1.79"/><path id="Shape_1152-2" class="cls-1" d="M106.88,51.99c0-.99,.8-1.79,1.79-1.79"/><path id="Shape_1153-2" class="cls-1" d="M108.67,53.8c-.99,0-1.79-.8-1.79-1.79"/><path id="Shape_1154-2" class="cls-1" d="M110.45,52.01c0,.99-.8,1.79-1.79,1.79"/></g><g><path id="Shape_1151-3" class="cls-1" d="M108.67,82.2c.99,0,1.79,.8,1.79,1.79"/><path id="Shape_1152-3" class="cls-1" d="M106.88,83.99c0-.99,.8-1.79,1.79-1.79"/><path id="Shape_1153-3" class="cls-1" d="M108.67,85.8c-.99,0-1.79-.8-1.79-1.79"/><path id="Shape_1154-3" class="cls-1" d="M110.45,84.01c0,.99-.8,1.79-1.79,1.79"/></g></svg>