<?xml version="1.0" encoding="UTF-8"?><svg id="icon" xmlns="http://www.w3.org/2000/svg" viewBox="0 0 136 136"><defs><style>.cls-1{fill-rule:evenodd;stroke:#1d1d1b;stroke-miterlimit:10;}.cls-1,.cls-2{fill:none;stroke-width:6px;}.cls-2{stroke:#000;stroke-linecap:round;stroke-linejoin:round;}</style></defs><path class="cls-1" d="M60.66,19.6L15.21,109.33c-2.97,5.46,.94,12.14,7.1,12.14H113.7c6.16,0,10.07-6.68,7.1-12.14L74.96,19.6c-3.05-5.61-11.25-5.61-14.3,0Z"/><g><path class="cls-2" d="M44.34,89.01h23.52c1.33,0,2.42,1.08,2.42,2.42v8.57c0,.67-.54,1.21-1.21,1.21h-25.94c-.67,0-1.21-.54-1.21-1.21v-8.57c0-1.33,1.08-2.42,2.42-2.42Z"/><path class="cls-2" d="M44.03,88.55l2.99-5.26c.75-1.79,2.45-2.95,4.35-2.95h9.76c1.89,0,3.59,1.16,4.34,2.94l2.74,5.24"/><path d="M42.37,103.16h5.87c.22,0,.4,.18,.4,.4v2.72c0,.67-.54,1.21-1.21,1.21h-4.25c-.67,0-1.21-.54-1.21-1.21v-2.72c0-.22,.18-.4,.4-.4Z"/><path d="M63.95,103.2h5.87c.22,0,.4,.18,.4,.4v2.72c0,.67-.54,1.21-1.21,1.21h-4.25c-.67,0-1.21-.54-1.21-1.21v-2.72c0-.22,.18-.4,.4-.4Z"/><path d="M82.13,91.2h5.68c.21,0,.39,.17,.39,.39v2.63c0,.65-.52,1.17-1.17,1.17h-4.11c-.65,0-1.17-.52-1.17-1.17v-2.63c0-.21,.17-.39,.39-.39Z"/><path class="cls-2" d="M60.81,79.88c0-1.29,1.05-2.34,2.34-2.34h22.76c1.29,0,2.34,1.05,2.34,2.34v8.29c0,.65-.52,1.17-1.17,1.17h-17.22"/><path class="cls-2" d="M62.84,77.1l2.89-5.09c.72-1.73,2.38-2.85,4.2-2.85h9.45c1.83,0,3.48,1.12,4.2,2.84l2.66,5.07"/></g></svg>