<?xml version="1.0" encoding="UTF-8"?><svg id="icon" xmlns="http://www.w3.org/2000/svg" viewBox="0 0 136 136"><defs><style>.cls-1{fill:none;stroke:#1d1d1b;stroke-linecap:round;stroke-linejoin:round;stroke-width:6px;}</style></defs><line class="cls-1" x1="50.36" y1="114.96" x2="50.36" y2="32.02"/><path class="cls-1" d="M50.36,114.96l-27.1-11.06c-1.79-.73-2.97-2.48-2.97-4.42V19.53l30.07,12.49"/><polyline class="cls-1" points="115.74 61.88 115.74 32.29 85.68 21.09"/><polyline class="cls-1" points="85.68 55.87 85.68 21.09 50.36 32.02"/><g><path id="Shape_179" class="cls-1" d="M83.66,103.82h-17.26v17.26"/><path id="Shape_180" class="cls-1" d="M118.95,107.19c-3.76,10.99-14.43,18.08-26.01,17.28-11.58-.79-21.19-9.26-23.42-20.66"/><path id="Shape_181" class="cls-1" d="M104.38,90.01h17.26v-17.26"/><path id="Shape_182" class="cls-1" d="M69.09,86.63c3.76-10.99,14.43-18.08,26.01-17.28,11.58,.79,21.19,9.26,23.42,20.66"/></g></svg>