<?xml version="1.0" encoding="UTF-8"?><svg id="icon" xmlns="http://www.w3.org/2000/svg" viewBox="0 0 136 136"><defs><style>.cls-1{fill:none;stroke:#1d1d1b;stroke-linecap:round;stroke-linejoin:round;stroke-width:6px;}</style></defs><path id="Shape_1620" class="cls-1" d="M92.53,48.22l.12-34.6"/><path id="Shape_1622" class="cls-1" d="M92.77,122.33l.09-30.52"/><g><path id="Shape_1624" class="cls-1" d="M76.53,43.02v5.2"/><path id="Shape_1625" class="cls-1" d="M76.53,27.43v5.2"/><path id="Shape_1625-2" class="cls-1" d="M76.4,12.32v5.2"/></g><g><path id="Shape_1626" class="cls-1" d="M76.77,88.62v5.2"/><path id="Shape_1627" class="cls-1" d="M76.77,104.21v5.2"/><path id="Shape_1625-3" class="cls-1" d="M76.3,119.18v5.2"/></g><path id="Shape_1624-2" class="cls-1" d="M34.08,78.21v9.46"/><path id="Shape_1624-3" class="cls-1" d="M101.87,78.21v9.46"/><g><path id="Shape_1624-4" class="cls-1" d="M60.4,43.02v5.2"/><path id="Shape_1625-4" class="cls-1" d="M60.4,27.43v5.2"/><path id="Shape_1625-5" class="cls-1" d="M60.26,12.32v5.2"/></g><g><path id="Shape_1626-2" class="cls-1" d="M60.3,88.62v5.2"/><path id="Shape_1627-2" class="cls-1" d="M60.3,104.21v5.2"/><path id="Shape_1625-6" class="cls-1" d="M59.83,119.18v5.2"/></g><path id="Shape_1621" class="cls-1" d="M44.26,13.41l-.43,34.82"/><path id="Shape_1623" class="cls-1" d="M43.83,91.82l-.85,29.66"/><rect class="cls-1" x="30.8" y="58.44" width="32.15" height="19.5"/><rect class="cls-1" x="73.01" y="58.44" width="32.15" height="19.5"/></svg>