<?xml version="1.0" encoding="UTF-8"?><svg id="icon" xmlns="http://www.w3.org/2000/svg" viewBox="0 0 136 136"><defs><style>.cls-1{stroke-dasharray:0 0 11.76 11.76;}.cls-1,.cls-2{fill:none;stroke:#1d1d1b;stroke-linecap:round;stroke-linejoin:round;stroke-width:6px;}</style></defs><g id="Rectangle-path_59"><path class="cls-1" d="M26.99,19.69H110.01c3.98,0,7.2,3.23,7.2,7.2V109.44c0,3.98-3.23,7.2-7.2,7.2H26.99c-3.98,0-7.2-3.23-7.2-7.2V26.89c0-3.98,3.23-7.2,7.2-7.2Z"/></g><path id="Rectangle-path_59-2" class="cls-2" d="M19.79,74.26c0-1.88,1.52-3.4,3.4-3.4H62.4c1.88,0,3.4,1.52,3.4,3.4v38.98c0,1.88-1.52,3.4-3.4,3.4H23.19c-1.88,0-3.4-1.52-3.4-3.4v-38.98Z"/><path id="Shape_1310" class="cls-2" d="M65.73,71.09l28.54-28.54"/><path id="Shape_1312" class="cls-2" d="M94.27,58.86v-16.31h-16.31"/></svg>