<?xml version="1.0" encoding="UTF-8"?><svg id="icon" xmlns="http://www.w3.org/2000/svg" viewBox="0 0 136 136"><defs><style>.cls-1{fill:none;stroke:#1d1d1b;stroke-linecap:round;stroke-linejoin:round;stroke-width:6px;}</style></defs><path id="Shape_715" class="cls-1" d="M47.65,56.74c-7.45,3.57-16.34,2.06-22.2-3.78-5.85-5.83-7.39-14.72-3.84-22.18l6.12,6.1c1.63,1.67,4.04,2.34,6.3,1.75s4.03-2.36,4.63-4.62c.6-2.26-.06-4.67-1.73-6.31l-6.11-6.1c7.45-3.56,16.33-2.05,22.18,3.79,5.85,5.83,7.38,14.71,3.84,22.17l6.65,6.63"/><path id="Shape_716" class="cls-1" d="M82.25,72.88l6.1,6.09c7.45-3.57,16.34-2.05,22.19,3.78,5.85,5.83,7.39,14.71,3.85,22.18l-6.12-6.1c-2.54-2.5-6.62-2.48-9.14,.04-2.52,2.52-2.55,6.59-.06,9.14l6.11,6.1c-7.45,3.56-16.33,2.04-22.18-3.79-5.84-5.83-7.38-14.71-3.84-22.17"/><g id="Interface-Essential___Setting___screwdriver"><g id="Group_156"><g id="screwdriver"><path id="Shape_721" class="cls-1" d="M68.88,76.47l-9.13-9.13c-1.21-1.21-2.85-1.89-4.57-1.89s-3.36,.68-4.57,1.89l-27.38,27.39c-4.89,5.07-4.82,13.12,.16,18.1,4.98,4.98,13.03,5.05,18.1,.16l27.39-27.39c2.52-2.52,2.52-6.61,0-9.13Z"/><path id="Shape_722" class="cls-1" d="M98.12,22.95c1.13-1.7,2.96-2.79,4.99-3s4.04,.52,5.48,1.96l5.7,5.7c1.44,1.44,2.16,3.45,1.96,5.48-.2,2.03-1.3,3.86-3,4.99l-10.64,7.1c-3.31,2.21-7.73,1.78-10.54-1.04-2.82-2.82-3.25-7.23-1.04-10.54l7.1-10.64Z"/><path id="Shape_723" class="cls-1" d="M92.07,44.15l-27.76,27.76"/></g></g></g></svg>