<?xml version="1.0" encoding="UTF-8"?><svg id="icon" xmlns="http://www.w3.org/2000/svg" viewBox="0 0 136 136"><defs><style>.cls-1{fill:none;stroke:#1d1d1b;stroke-linecap:round;stroke-linejoin:round;stroke-width:6px;}</style></defs><path class="cls-1" d="M25.27,95.05V44.63c0-2.35,1.91-4.26,4.26-4.26H106.08c2.35,0,4.26,1.91,4.26,4.26V112.78c0,2.35-1.91,4.26-4.26,4.26H29.53c-2.35,0-4.26-1.91-4.26-4.26v-17.73"/><line class="cls-1" x1="67.86" y1="40.32" x2="67.86" y2="116.34"/><path class="cls-1" d="M76.63,40.37c7.24-3.68,13.82-16.48,8.14-21.29-5.56-4.71-16.32,1.1-16.98,17.08"/><line class="cls-1" x1="105.9" y1="78.7" x2="29.88" y2="78.7"/><polyline class="cls-1" points="50.82 57.46 67.57 40.37 84.77 57.46"/><path class="cls-1" d="M59.03,40.37c-7.24-3.68-13.82-16.48-8.14-21.29,5.56-4.71,16.32,1.1,16.98,17.08"/></svg>