<?xml version="1.0" encoding="UTF-8"?><svg id="icon" xmlns="http://www.w3.org/2000/svg" viewBox="0 0 136 136"><defs><style>.cls-1{fill:none;stroke:#1d1d1b;stroke-linecap:round;stroke-linejoin:round;stroke-width:6px;}</style></defs><g id="Phones-Mobile-Devices___Phone___phone"><g id="Group_11"><g id="phone"><path id="Shape_59" class="cls-1" d="M80.67,112.31l.05,.03c9.33,5.94,21.54,4.6,29.36-3.22l3.3-3.3c3.07-3.07,3.07-8.05,0-11.13l-13.91-13.9c-3.07-3.07-8.05-3.07-11.13,0h0c-1.47,1.48-3.48,2.31-5.56,2.31s-4.09-.83-5.56-2.31l-22.26-22.26c-3.07-3.07-3.07-8.05,0-11.13h0c1.48-1.47,2.31-3.48,2.31-5.56s-.83-4.09-2.31-5.56l-13.91-13.92c-3.07-3.07-8.05-3.07-11.13,0l-3.3,3.3c-7.82,7.82-9.16,20.03-3.22,29.36l.03,.05c15.24,22.56,34.67,42,57.23,57.25h0Z"/></g></g></g></svg>