<?xml version="1.0" encoding="UTF-8"?><svg id="icon" xmlns="http://www.w3.org/2000/svg" viewBox="0 0 136 136"><defs><style>.cls-1{stroke-miterlimit:10;}.cls-1,.cls-2{fill-rule:evenodd;}.cls-1,.cls-3{fill:none;stroke:#1d1d1b;stroke-width:6px;}.cls-2{fill:#1d1d1b;}.cls-3{stroke-linecap:round;stroke-linejoin:round;}</style></defs><path class="cls-1" d="M60.79,19.6L15.33,109.33c-2.97,5.46,.94,12.14,7.1,12.14H113.82c6.16,0,10.07-6.68,7.1-12.14L75.08,19.6c-3.05-5.61-11.25-5.61-14.3,0Z"/><path class="cls-2" d="M68.13,94.67c-.78,0-1.54,.31-2.09,.87-.55,.55-.87,1.31-.87,2.09,0,1.63,1.33,2.94,2.96,2.94,1.63,0,2.94-1.32,2.94-2.94,0-.78-.31-1.54-.86-2.09-.55-.55-1.3-.87-2.09-.87Z"/><line class="cls-3" x1="68.16" y1="59.37" x2="68.09" y2="85.92"/></svg>