<?xml version="1.0" encoding="UTF-8"?><svg id="icon" xmlns="http://www.w3.org/2000/svg" viewBox="0 0 136 136"><defs><style>.cls-1{fill:#1d1d1b;font-family:Noway-Bold, Noway;font-size:64px;}.cls-2{letter-spacing:-.01em;}.cls-3{letter-spacing:0em;}.cls-4{fill:none;stroke:#1d1d1b;stroke-linecap:round;stroke-linejoin:round;stroke-width:6px;}</style></defs><path id="Shape_202" class="cls-4" d="M121.12,122.05l.48-5.35c.65-7.17-4.12-13.71-11.15-15.27l-17.42-3.87v-27.39c0-4.94-4.01-8.95-8.95-8.95s-8.95,4.01-8.95,8.95v43.92l-7.05-5.29c-2.91-2.17-6.98-1.88-9.55,.69-2.57,2.57-2.86,6.64-.69,9.55l2.27,3.02"/><path class="cls-4" d="M121.38,88.53V28.81c0-2.64-2.14-4.77-4.77-4.77H18.8c-2.64,0-4.77,2.14-4.77,4.77v62.03c0,2.64,2.14,4.77,4.77,4.77H58.55"/><text class="cls-1" transform="translate(20.83 83.24)"><tspan class="cls-2" x="0" y="0">6</tspan><tspan class="cls-3" x="37.82" y="6.09">˝</tspan></text></svg>