<?xml version="1.0" encoding="UTF-8"?><svg id="icon" xmlns="http://www.w3.org/2000/svg" viewBox="0 0 1063.39 528.68"><defs><style>.cls-1,.cls-2,.cls-3,.cls-4,.cls-5{fill:none;}.cls-2,.cls-3,.cls-4,.cls-5{stroke:#1d1d1b;stroke-width:6px;}.cls-2,.cls-4{stroke-miterlimit:10;}.cls-6,.cls-7{fill:#1d1d1b;}.cls-3,.cls-4,.cls-7{fill-rule:evenodd;}.cls-3,.cls-5{stroke-linecap:round;stroke-linejoin:round;}</style></defs><g><rect class="cls-1" x="234.5" y="-.59" width="135.91" height="135.91"/><line class="cls-5" x1="291.71" y1="115.46" x2="313.61" y2="115.46"/><path class="cls-3" d="M337.31,43.2c-1.19-2.28-2.92-4.05-5.14-5.26-2.1-1.15-4.17-1.96-11.8-1.96h-35.4c-7.64,0-9.71,.81-11.8,1.96-2.22,1.22-3.95,2.99-5.14,5.26-1.12,2.15-1.91,4.27-1.91,12.08l-.02,25.3c0,7.82,.79,9.94,1.91,12.08,1.19,2.28,2.92,4.05,5.14,5.26,2.1,1.15,4.17,1.96,11.81,1.96h35.4c7.64,0,9.71-.81,11.8-1.96,2.22-1.22,3.95-2.99,5.14-5.26,1.12-2.15,1.91-4.27,1.91-12.08l.02-25.3c0-7.82-.79-9.94-1.91-12.08Z"/><path class="cls-3" d="M315.86,67.94c0,7.3-6.51,13.2-13.2,13.2s-13.22-5.9-13.22-13.2,6.53-13.22,13.22-13.22,13.2,5.93,13.2,13.22Z"/><path class="cls-3" d="M249.81,62.54s-.72-21.67,9.89-33.26c9.37-10.23,19.29-9.26,19.29-9.26h23.25"/><path class="cls-3" d="M355.59,62.54s.72-21.67-9.89-33.26c-9.37-10.23-19.29-9.26-19.29-9.26h-23.25"/></g><g><rect class="cls-1" x="465.54" y="-.59" width="135.91" height="135.91"/><path id="Shape_179" class="cls-5" d="M545.48,98.61h-17.24v17.24"/><path id="Shape_180" class="cls-5" d="M580.73,101.98c-3.75,10.97-14.41,18.05-25.98,17.26-11.57-.79-21.16-9.25-23.39-20.63"/><path id="Shape_181" class="cls-5" d="M566.17,84.82h17.24v-17.24"/><path id="Shape_182" class="cls-5" d="M530.92,81.45c3.75-10.97,14.41-18.05,25.98-17.26,11.57,.79,21.16,9.25,23.39,20.63"/><path id="Shape_183" class="cls-5" d="M512.72,103.81c-3.56-11.74-5.3-23.96-5.16-36.23,0-21.3,4.68-39.94,11.67-50.2"/><path id="Shape_184" class="cls-5" d="M480.09,64.13h44.7"/><path id="Shape_185" class="cls-5" d="M490.32,36.55h82.75"/><path id="Shape_186" class="cls-5" d="M485.94,91.71h28.51"/><path id="Shape_187" class="cls-5" d="M544.15,17.38c5.42,9.01,8.86,19.06,10.11,29.49"/><path id="Shape_188" class="cls-5" d="M513.12,115.85c-22.32-8.59-35.84-31.35-32.7-55.06,3.14-23.7,22.11-42.17,45.89-44.66,23.78-2.49,46.17,11.65,54.15,34.19"/></g><g><rect class="cls-1" x="696.59" y="-.59" width="135.91" height="135.91"/><path class="cls-4" d="M757.29,19.01l-45.45,89.72c-2.97,5.46,.94,12.14,7.1,12.14h91.4c6.16,0,10.07-6.68,7.1-12.14l-45.84-89.72c-3.05-5.61-11.25-5.61-14.3,0Z"/><path class="cls-7" d="M764.63,94.08c-.78,0-1.54,.31-2.09,.87-.55,.55-.87,1.31-.87,2.09,0,1.63,1.33,2.94,2.96,2.94,1.63,0,2.94-1.32,2.94-2.94,0-.78-.31-1.54-.86-2.09-.55-.55-1.3-.87-2.09-.87Z"/><line class="cls-5" x1="764.66" y1="58.79" x2="764.59" y2="85.33"/></g><g><rect class="cls-1" x="3.45" y="-.59" width="135.91" height="135.91"/><path class="cls-5" d="M20.03,67.78h60.2c3.41,0,6.19,2.77,6.19,6.19v21.94c0,1.71-1.39,3.09-3.09,3.09H16.94c-1.71,0-3.09-1.39-3.09-3.09v-21.94c0-3.41,2.77-6.19,6.19-6.19Z"/><path class="cls-5" d="M19.21,66.63l7.65-13.46c1.91-4.58,6.28-7.55,11.12-7.55h24.99c4.83,0,9.2,2.96,11.11,7.52l7.02,13.42"/><path class="cls-6" d="M34.89,85.11c0,3.42-2.81,3.21-6.29,3.21s-6.29,.22-6.29-3.21,2.81-6.2,6.29-6.2,6.29,2.78,6.29,6.2Z"/><path class="cls-6" d="M77.92,85.04c0,3.39-2.74,3.17-6.13,3.17s-6.13,.21-6.13-3.17,2.74-6.13,6.13-6.13,6.13,2.75,6.13,6.13Z"/><path class="cls-6" d="M14.97,107.47h15.02c.56,0,1.02,.46,1.02,1.02v4.4c0,1.71-1.39,3.09-3.09,3.09h-10.88c-1.71,0-3.09-1.39-3.09-3.09v-4.4c0-.56,.46-1.02,1.02-1.02Z"/><path class="cls-6" d="M70.21,107.56h15.02c.56,0,1.02,.46,1.02,1.02v4.4c0,1.71-1.39,3.09-3.09,3.09h-10.88c-1.71,0-3.09-1.39-3.09-3.09v-4.4c0-.56,.46-1.02,1.02-1.02Z"/><path class="cls-5" d="M82.67,42.4h38.15c4.93,0,8.93,3.96,8.93,8.85v17.68c0,2.44-2,4.42-4.47,4.42h-26.64"/><path class="cls-5" d="M69.06,28.2c1.91-4.45,6.28-7.33,11.12-7.33h24.99c4.83,0,9.2,2.87,11.11,7.31l6.02,13.95"/><path class="cls-6" d="M121.19,60.15c0,3.42-2.79,3.2-6.23,3.2s-6.23,.22-6.23-3.2,2.79-6.18,6.23-6.18,6.23,2.77,6.23,6.18Z"/><path class="cls-6" d="M113.45,81.61h15.02c.56,0,1.02,.46,1.02,1.02v4.4c0,1.71-1.39,3.09-3.09,3.09h-10.88c-1.71,0-3.09-1.39-3.09-3.09v-4.4c0-.56,.46-1.02,1.02-1.02Z"/><line class="cls-5" x1="66.92" y1="32.52" x2="69.02" y2="28.54"/></g><g><rect class="cls-1" x="927.64" y="-.59" width="135.91" height="135.91"/><path class="cls-5" d="M957.06,115.49l.15-86.57c.01-5.23,4.26-9.46,9.49-9.45l29.02,.08c5.22,.01,9.44,4.25,9.44,9.47V114.79"/><path class="cls-5" d="M1005.31,77.25l9.7,.05c5.25,.03,9.52,4.27,9.57,9.52l.02,9.65c.01,5.32,4.34,9.62,9.65,9.6h0c5.31-.02,9.6-4.33,9.59-9.64l-.07-42.09c-.01-6.83-2.72-13.38-7.53-18.22l-5.39-5.42-6.32-6.35"/><path class="cls-5" d="M1043.81,72.4l-14.46-14.61c-2.94-2.97-4.01-7.32-2.8-11.32l4.51-14.86"/><line class="cls-5" x1="947.86" y1="115.72" x2="1014.89" y2="115.49"/><path id="Rectangle-path_4" class="cls-5" d="M968.17,31.83h25.88v12.94h-25.88v-12.94Z"/></g><g><rect class="cls-1" x="3.45" y="187.76" width="135.91" height="135.91"/><g><path id="Shape_2169" class="cls-5" d="M87.59,242.48c0,7.6-6.16,13.75-13.75,13.75h-13.75v-27.51h13.75c7.6,0,13.75,6.16,13.75,13.75h0Z"/><path id="Shape_2170" class="cls-5" d="M60.08,283.74v-27.51"/></g><path id="Rectangle-path_59" class="cls-5" d="M29.03,214.63c0-3.94,3.19-7.13,7.13-7.13H106.36c3.94,0,7.13,3.19,7.13,7.13v81.72c0,3.94-3.19,7.13-7.13,7.13H36.17c-3.94,0-7.13-3.19-7.13-7.13v-81.72Z"/></g><g><rect class="cls-1" x="234.5" y="187.76" width="135.91" height="135.91"/><path class="cls-5" d="M339.14,252.6l-33.77-33.77c-3.11-3.11-8.15-3.11-11.26,0l-16.88,16.88c-8.34,8.34-11.08,20.16-8.22,30.8l-.03-.03-8.63,8.63c-3.11,3.11-3.11,8.15,0,11.26l11.26,11.26c3.11,3.11,8.15,3.11,11.26,0l8.63-8.63-.03-.03c10.63,2.86,22.45,.12,30.79-8.22l16.88-16.88c3.11-3.11,3.11-8.15,0-11.26Z"/><path id="Shape_1008" class="cls-5" d="M311,224.46l16.88-16.88"/><path id="Shape_1009" class="cls-5" d="M333.51,246.97l16.88-16.88"/><path id="Shape_1010" class="cls-5" d="M265.98,292l-11.26,11.26"/></g><g><rect class="cls-1" x="465.54" y="187.76" width="135.91" height="135.91"/><g><line class="cls-5" x1="497.47" y1="300.81" x2="500.45" y2="264.84"/><rect class="cls-5" x="485.47" y="228.78" width="95.99" height="32.02" rx="6" ry="6"/><line class="cls-2" x1="515.49" y1="228.53" x2="494.96" y2="260.55"/><line class="cls-2" x1="543.73" y1="229.09" x2="523.2" y2="261.11"/><line class="cls-2" x1="572.78" y1="228.53" x2="552.25" y2="260.55"/><line class="cls-5" x1="569.61" y1="300.72" x2="565.93" y2="264.75"/></g></g><g><rect class="cls-1" x="696.59" y="187.76" width="135.91" height="135.91"/><path class="cls-3" d="M801.79,241.08c0,13.38-19.82,46.26-19.82,46.26,0,0-8.04,14.53-10.88,18.51-3.08,4.3-10.2,4.31-13.27,0-2.81-3.95-11.77-20.15-11.77-20.15,0,0-18.76-31.23-18.76-44.62,0-21.41,16.68-38.77,37.26-38.77s37.26,17.36,37.26,38.77Z"/><circle class="cls-5" cx="764.53" cy="238.79" r="14.09"/></g><g><rect class="cls-1" x="927.64" y="187.76" width="135.91" height="135.91"/><path id="Shape_1620" class="cls-5" d="M1020.08,235.98l.12-34.6"/><path id="Shape_1622" class="cls-5" d="M1020.31,310.09l.09-30.52"/><g><path id="Shape_1624" class="cls-5" d="M1004.08,230.78v5.2"/><path id="Shape_1625" class="cls-5" d="M1004.08,215.18v5.2"/><path id="Shape_1625-2" class="cls-5" d="M1003.94,200.08v5.2"/></g><g><path id="Shape_1626" class="cls-5" d="M1004.31,276.37v5.2"/><path id="Shape_1627" class="cls-5" d="M1004.31,291.97v5.2"/><path id="Shape_1625-3" class="cls-5" d="M1003.84,306.93v5.2"/></g><path id="Shape_1624-2" class="cls-5" d="M961.62,265.97v9.46"/><path id="Shape_1624-3" class="cls-5" d="M1029.41,265.97v9.46"/><g><path id="Shape_1624-4" class="cls-5" d="M987.94,230.78v5.2"/><path id="Shape_1625-4" class="cls-5" d="M987.94,215.18v5.2"/><path id="Shape_1625-5" class="cls-5" d="M987.81,200.08v5.2"/></g><g><path id="Shape_1626-2" class="cls-5" d="M987.84,276.37v5.2"/><path id="Shape_1627-2" class="cls-5" d="M987.84,291.97v5.2"/><path id="Shape_1625-6" class="cls-5" d="M987.37,306.93v5.2"/></g><path id="Shape_1621" class="cls-5" d="M971.81,201.16l-.43,34.82"/><path id="Shape_1623" class="cls-5" d="M971.37,279.57l-.85,29.66"/><rect class="cls-5" x="958.34" y="246.19" width="32.15" height="19.5"/><rect class="cls-5" x="1000.55" y="246.19" width="32.15" height="19.5"/></g><g><rect class="cls-1" x="3.45" y="392.78" width="135.91" height="135.91"/><g id="Transportation___Autonomus-Cars___auto-pilot-car-wheel-disable"><g id="Group_184"><g id="auto-pilot-car-wheel-disable"><path id="Shape_1363" class="cls-5" d="M23.76,485.52c-11.1-21.07-6.94-46.94,10.21-63.46,17.15-16.52,43.16-19.72,63.8-7.84"/><path id="Shape_1364" class="cls-5" d="M117.41,433.89c11.88,20.64,8.68,46.65-7.84,63.8-16.52,17.15-42.39,21.31-63.46,10.21"/><path id="Shape_1365" class="cls-5" d="M36.13,478.39c-7.72-15.14-4.81-33.54,7.21-45.56,12.02-12.02,30.41-14.93,45.56-7.21"/><path id="Shape_1366" class="cls-5" d="M106,442.73c7.72,15.14,4.81,33.54-7.21,45.56-12.02,12.02-30.41,14.93-45.56,7.21"/><path id="Shape_1367" class="cls-5" d="M71.06,446.3c-13.13,.14-26.14,2.46-38.5,6.86"/><path id="Shape_1368" class="cls-5" d="M109.57,453.17c-3.27-1.19-6.61-2.21-9.98-3.07"/><path id="Shape_1369" class="cls-5" d="M60.79,489.08c.23,3.09,.15,6.19-.23,9.27"/><path id="Shape_1370" class="cls-5" d="M32.47,467.59c4.53-.92,9.21-.71,13.64,.61"/><path id="Shape_1371" class="cls-5" d="M109.66,467.57c-17.19-3.13-30.9,7.13-28.08,30.78"/><path id="Shape_1372" class="cls-5" d="M124.54,407.08l-106.95,106.95"/></g></g></g></g><g><rect class="cls-1" x="234.5" y="392.78" width="135.91" height="135.91"/><g><circle class="cls-2" cx="317.92" cy="445.56" r="32.9"/><line class="cls-2" x1="286.12" y1="477.95" x2="293.96" y2="470.12"/><rect class="cls-5" x="262.92" y="473.76" width="15.32" height="37.86" rx="7.66" ry="7.66" transform="translate(427.64 -47.02) rotate(45)"/></g></g><g><rect class="cls-1" x="465.54" y="392.78" width="135.91" height="135.91"/><g><polyline class="cls-5" points="551.44 497.4 581.46 508.36 581.46 425.54 551.44 414.36"/><line class="cls-5" x1="516.16" y1="508.1" x2="516.16" y2="425.28"/><path class="cls-5" d="M516.16,508.1l-27.06-11.05c-1.79-.73-2.96-2.48-2.96-4.41v-79.84l30.03,12.47"/><polyline class="cls-5" points="516.16 425.28 551.44 414.36 551.44 497.4 516.16 508.1"/></g></g><g><rect class="cls-1" x="696.59" y="392.78" width="135.91" height="135.91"/><g id="Interface-Essential___Lock_Unlock___lock-1"><g id="Group_117"><g id="lock-1"><path id="Rectangle-path_41" class="cls-5" d="M725,457.19c0-3.97,3.22-7.18,7.18-7.18h64.64c3.97,0,7.18,3.22,7.18,7.18v50.27c0,3.97-3.22,7.18-7.18,7.18h-64.64c-3.97,0-7.18-3.22-7.18-7.18v-50.27Z"/><path id="Shape_585" class="cls-5" d="M739.36,450v-17.95c0-13.88,11.25-25.14,25.14-25.14s25.14,11.25,25.14,25.14v17.95"/><path id="Shape_586" class="cls-5" d="M764.5,475.14v14.36"/></g></g></g></g><g><rect class="cls-1" x="927.64" y="392.78" width="135.91" height="135.91"/><g id="Transportation___Roads_Lights___road-curvy"><g id="Group_204"><g id="road-curvy"><path id="Shape_1611" class="cls-5" d="M1008.67,488.28v19.54"/><path id="Shape_1612" class="cls-5" d="M1008.67,449.21v19.54"/><path id="Shape_1613" class="cls-5" d="M1041.23,488.28h-19.54v-26.05l27.07-.49"/><path id="Shape_1614" class="cls-5" d="M1020.76,506.01l.94-56.81c0-21.58-17.49-39.08-39.08-39.08s-39.08,17.49-39.08,39.08,17.49,39.08,39.08,39.08h13.03v-26.05h-13.03c-7.19,0-13.03-5.83-13.03-13.03s5.83-13.03,13.03-13.03,13.03,5.83,13.03,13.03l-.19,64.04"/><path id="Shape_1615" class="cls-5" d="M1034.72,475.26h-13.03"/><path id="Shape_1616" class="cls-5" d="M982.62,423.16c6.91,0,13.54,2.74,18.42,7.63"/><path id="Shape_1617" class="cls-5" d="M956.57,449.22c0-6.91,2.74-13.54,7.63-18.42"/><path id="Shape_1618" class="cls-5" d="M982.62,475.29c-6.91,0-13.54-2.74-18.42-7.63"/></g></g></g></g></svg>