<?xml version="1.0" encoding="UTF-8"?><svg id="icon" xmlns="http://www.w3.org/2000/svg" viewBox="0 0 136 136"><defs><style>.cls-1{fill:none;stroke:#1d1d1b;stroke-linecap:round;stroke-linejoin:round;stroke-width:6px;}</style></defs><path id="Shape_196" class="cls-1" d="M85.4,110.38H46.12"/><path id="Shape_197" class="cls-1" d="M91.22,81.53h10.82c7.97,0,20.43,6.46,20.43,14.43v7.21c0,3.98-3.23,7.21-7.21,7.21h-11.43"/><path id="Shape_197-2" class="cls-1" d="M23.69,81.53l8.82-17.65c1.22-2.44,3.72-3.99,6.45-3.99h37.99c2.73,0,5.44,1.77,7.45,3.99l17.8,17.65"/><path id="Shape_197-3" class="cls-1" d="M26.69,110.38h-5.21c-3.98,0-7.21-3.23-7.21-7.21v-7.21c0-7.97,6.46-14.43,14.43-14.43"/><path id="Shape_198" class="cls-1" d="M97.22,81.53H28.69"/><path id="Oval_134" class="cls-1" d="M94.46,118.18c4.95,0,8.96-4.01,8.96-8.96s-4.01-8.96-8.96-8.96-8.96,4.01-8.96,8.96,4.01,8.96,8.96,8.96Z"/><path id="Oval_134-2" class="cls-1" d="M36.46,118.18c4.95,0,8.96-4.01,8.96-8.96s-4.01-8.96-8.96-8.96-8.96,4.01-8.96,8.96,4.01,8.96,8.96,8.96Z"/></svg>