<?xml version="1.0" encoding="UTF-8"?><svg id="icon" xmlns="http://www.w3.org/2000/svg" viewBox="0 0 136 136"><defs><style>.cls-1{fill:none;stroke:#1d1d1b;stroke-linecap:round;stroke-linejoin:round;stroke-width:6px;}</style></defs><g id="Transportation___Roads_Lights___road-curvy"><g id="Group_204"><g id="road-curvy"><path id="Shape_1611" class="cls-1" d="M81.13,95.51v19.54"/><path id="Shape_1612" class="cls-1" d="M81.13,56.43v19.54"/><path id="Shape_1613" class="cls-1" d="M113.69,95.51h-19.54v-26.05l27.07-.49"/><path id="Shape_1614" class="cls-1" d="M93.21,113.24l.94-56.81c0-21.58-17.49-39.08-39.08-39.08S16,34.85,16,56.43s17.49,39.08,39.08,39.08h13.03v-26.05h-13.03c-7.19,0-13.03-5.83-13.03-13.03s5.83-13.03,13.03-13.03,13.03,5.83,13.03,13.03l-.19,64.04"/><path id="Shape_1615" class="cls-1" d="M107.18,82.48h-13.03"/><path id="Shape_1616" class="cls-1" d="M55.08,30.38c6.91,0,13.54,2.74,18.42,7.63"/><path id="Shape_1617" class="cls-1" d="M29.03,56.44c0-6.91,2.74-13.54,7.63-18.42"/><path id="Shape_1618" class="cls-1" d="M55.08,82.51c-6.91,0-13.54-2.74-18.42-7.63"/></g></g></g></svg>