<?xml version="1.0" encoding="UTF-8"?><svg id="icon" xmlns="http://www.w3.org/2000/svg" viewBox="0 0 136 136"><defs><style>.cls-1{fill:#1d1d1b;}.cls-2{fill:none;stroke:#1d1d1b;stroke-linecap:round;stroke-linejoin:round;stroke-width:6px;}</style></defs><path class="cls-2" d="M16.68,68.37h60.2c3.41,0,6.19,2.77,6.19,6.19v21.94c0,1.71-1.39,3.09-3.09,3.09H13.58c-1.71,0-3.09-1.39-3.09-3.09v-21.94c0-3.41,2.77-6.19,6.19-6.19Z"/><path class="cls-2" d="M15.86,67.21l7.65-13.46c1.91-4.58,6.28-7.55,11.12-7.55h24.99c4.83,0,9.2,2.96,11.11,7.52l7.02,13.42"/><path class="cls-1" d="M31.53,85.7c0,3.42-2.81,3.21-6.29,3.21s-6.29,.22-6.29-3.21,2.81-6.2,6.29-6.2,6.29,2.78,6.29,6.2Z"/><path class="cls-1" d="M74.56,85.63c0,3.39-2.74,3.17-6.13,3.17s-6.13,.21-6.13-3.17,2.74-6.13,6.13-6.13,6.13,2.75,6.13,6.13Z"/><path class="cls-1" d="M11.62,108.05h15.02c.56,0,1.02,.46,1.02,1.02v4.4c0,1.71-1.39,3.09-3.09,3.09H13.69c-1.71,0-3.09-1.39-3.09-3.09v-4.4c0-.56,.46-1.02,1.02-1.02Z"/><path class="cls-1" d="M66.85,108.14h15.02c.56,0,1.02,.46,1.02,1.02v4.4c0,1.71-1.39,3.09-3.09,3.09h-10.88c-1.71,0-3.09-1.39-3.09-3.09v-4.4c0-.56,.46-1.02,1.02-1.02Z"/><path class="cls-2" d="M79.31,42.99h38.15c4.93,0,8.93,3.96,8.93,8.85v17.68c0,2.44-2,4.42-4.47,4.42h-26.64"/><path class="cls-2" d="M65.71,28.79c1.91-4.45,6.28-7.33,11.12-7.33h24.99c4.83,0,9.2,2.87,11.11,7.31l6.02,13.95"/><path class="cls-1" d="M117.84,60.74c0,3.42-2.79,3.2-6.23,3.2s-6.23,.22-6.23-3.2,2.79-6.18,6.23-6.18,6.23,2.77,6.23,6.18Z"/><path class="cls-1" d="M110.1,82.19h15.02c.56,0,1.02,.46,1.02,1.02v4.4c0,1.71-1.39,3.09-3.09,3.09h-10.88c-1.71,0-3.09-1.39-3.09-3.09v-4.4c0-.56,.46-1.02,1.02-1.02Z"/><line class="cls-2" x1="63.56" y1="33.11" x2="65.66" y2="29.13"/></svg>