<?xml version="1.0" encoding="UTF-8"?><svg id="icon" xmlns="http://www.w3.org/2000/svg" viewBox="0 0 136 136"><defs><style>.cls-1{fill:none;stroke:#1d1d1b;stroke-linecap:round;stroke-linejoin:round;stroke-width:6px;}</style></defs><path id="Oval_134" class="cls-1" d="M102,118.18c4.95,0,8.96-4.01,8.96-8.96s-4.01-8.96-8.96-8.96-8.96,4.01-8.96,8.96,4.01,8.96,8.96,8.96Z"/><path id="Oval_134-2" class="cls-1" d="M33.47,118.18c4.95,0,8.96-4.01,8.96-8.96s-4.01-8.96-8.96-8.96-8.96,4.01-8.96,8.96,4.01,8.96,8.96,8.96Z"/><path id="Shape_798" class="cls-1" d="M112.2,110.23h5.67c4.24,0,7.67-3.44,7.67-7.67v-15.35c0-2.49-.78-4.93-2.23-6.96l-16.95-23.74h-26.86v53.71"/><path id="Shape_799" class="cls-1" d="M125.54,87.21h-46.04"/><path id="Shape_800" class="cls-1" d="M79.51,110.23v-38.36H10.45v30.69c0,4.24,3.44,7.67,7.67,7.67h5.67"/><path id="Shape_801" class="cls-1" d="M91.85,110.23H43.14"/><path id="Shape_802" class="cls-1" d="M125.54,41.18c0,8.48-6.87,15.35-15.35,15.35h-30.69v15.35H10.45v-30.69c0-8.48,6.87-15.35,15.35-15.35H110.2c8.48,0,15.35,6.87,15.35,15.35Z"/><path id="Shape_803" class="cls-1" d="M110.2,41.18h-7.67"/><path id="Shape_804" class="cls-1" d="M71.83,41.18H25.8"/></svg>