<?xml version="1.0" encoding="UTF-8"?><svg id="icon" xmlns="http://www.w3.org/2000/svg" viewBox="0 0 136 136"><defs><style>.cls-1{fill-rule:evenodd;}.cls-1,.cls-2{fill:none;stroke:#1d1d1b;stroke-linecap:round;stroke-linejoin:round;stroke-width:6px;}</style></defs><path class="cls-1" d="M83.83,37.56c-.24-2.61-.72-3.76-1.33-4.92-.93-1.77-2.27-3.15-4-4.1-1.63-.89-3.24-1.53-9.19-1.53h-27.55c-5.94,0-7.56,.63-9.19,1.52-1.73,.95-3.08,2.33-4,4.1-.87,1.67-1.49,3.32-1.49,9.4l-.02,19.69c0,6.08,.62,7.73,1.49,9.4,.93,1.77,2.27,3.15,4,4.1"/><path class="cls-1" d="M14.4,47.69s-.56-16.87,7.7-25.89c7.29-7.97,15.02-7.21,15.02-7.21h18.09"/><path class="cls-1" d="M95.88,37.56c-.93-5.23-2.86-11.41-6.85-15.76-7.29-7.97-15.02-7.21-15.02-7.21h-18.09"/><g><line class="cls-2" x1="75.85" y1="121.72" x2="92.9" y2="121.72"/><path class="cls-1" d="M111.34,65.48c-.93-1.77-2.27-3.15-4-4.1-1.63-.89-3.24-1.53-9.19-1.53h-27.55c-5.94,0-7.56,.63-9.19,1.52-1.73,.95-3.08,2.33-4,4.1-.87,1.67-1.49,3.32-1.49,9.4l-.02,19.69c0,6.08,.62,7.73,1.49,9.4,.93,1.77,2.27,3.15,4,4.1,1.63,.89,3.24,1.53,9.19,1.53h27.55c5.94,0,7.56-.63,9.19-1.52,1.73-.95,3.08-2.33,4-4.1,.87-1.67,1.49-3.32,1.49-9.4l.02-19.69c0-6.08-.62-7.73-1.49-9.4Z"/><path class="cls-1" d="M94.65,84.74c0,5.68-5.07,10.27-10.28,10.27s-10.29-4.59-10.29-10.27,5.08-10.29,10.29-10.29,10.28,4.61,10.28,10.29Z"/><path class="cls-1" d="M43.23,80.53s-.56-16.87,7.7-25.89c7.29-7.97,15.02-7.21,15.02-7.21h18.09"/><path class="cls-1" d="M125.57,80.53s.56-16.87-7.7-25.89c-7.29-7.97-15.02-7.21-15.02-7.21h-18.09"/></g></svg>