<?xml version="1.0" encoding="UTF-8"?><svg id="icon" xmlns="http://www.w3.org/2000/svg" viewBox="0 0 136 136"><defs><style>.cls-1{fill:none;stroke:#1d1d1b;stroke-linecap:round;stroke-linejoin:round;stroke-width:6px;}</style></defs><path id="Oval_312" class="cls-1" d="M99.02,115.69c-9.36,0-16.95-7.59-16.95-16.95,0-9.36,7.59-16.95,16.95-16.95,9.36,0,16.95,7.59,16.95,16.95,0,9.36-7.59,16.95-16.95,16.95Z"/><path id="Oval_312-2" class="cls-1" d="M19.35,115.69c-1.16-5.47-1.77-11.14-1.77-16.95,0-44.98,36.46-81.44,81.44-81.44,5.81,0,11.49,.61,16.95,1.77"/><path id="Oval_312-3" class="cls-1" d="M65.68,115.69c-3-5.44-4.71-11.69-4.71-18.35,0-21.01,17.03-38.05,38.05-38.05,6.09,0,11.85,1.43,16.95,3.98"/><path id="Oval_312-4" class="cls-1" d="M42.65,115.69c-1.83-5.7-2.81-11.77-2.81-18.08,0-32.69,26.5-59.18,59.18-59.18,5.89,0,11.58,.86,16.95,2.46"/></svg>