<?xml version="1.0" encoding="UTF-8"?><svg id="icon" xmlns="http://www.w3.org/2000/svg" viewBox="0 0 136 136"><defs><style>.cls-1{fill:none;stroke:#000;stroke-linecap:round;stroke-linejoin:round;stroke-width:6px;}</style></defs><g id="Interface-Essential___Dashboard___layout-dashboard"><g id="Group_18"><g id="layout-dashboard"><path id="Shape_54" class="cls-1" d="M61.42,70.23c0,2.3-1.86,4.17-4.16,4.18H23.99c-1.11,0-2.17-.44-2.95-1.23s-1.22-1.85-1.21-2.95V24.2c0-1.11,.44-2.17,1.22-2.95,.78-.78,1.84-1.23,2.95-1.23l33.27,.06c2.3,0,4.16,1.88,4.15,4.18v45.97Z"/><path id="Shape_55" class="cls-1" d="M115.79,44.71c-.02,2.28-1.88,4.12-4.16,4.1h-33.27c-1.1,0-2.15-.42-2.93-1.19-.78-.77-1.22-1.82-1.23-2.91V24.18c.01-2.28,1.87-4.12,4.15-4.1l33.27-.06c2.28-.02,4.15,1.82,4.17,4.1v20.59Z"/><path id="Shape_56" class="cls-1" d="M61.42,111.88c0,1.1-.45,2.15-1.23,2.92-.78,.77-1.84,1.2-2.94,1.19l-33.27-.06c-2.28,0-4.14-1.83-4.15-4.11v-20.51c0-1.1,.45-2.15,1.23-2.92,.78-.77,1.83-1.2,2.93-1.19H57.26c2.28-.01,4.15,1.83,4.16,4.11v20.57Z"/><path id="Shape_57" class="cls-1" d="M78.36,116c-1.11,0-2.17-.44-2.95-1.23-.78-.78-1.22-1.85-1.21-2.96v-46.02c0-1.11,.43-2.17,1.21-2.95,.78-.78,1.84-1.23,2.95-1.23h33.27c1.11,0,2.17,.45,2.95,1.23,.78,.78,1.22,1.85,1.21,2.95v45.96c0,2.3-1.85,4.17-4.15,4.18l-33.27,.06Z"/></g></g></g></svg>