<?xml version="1.0" encoding="UTF-8"?><svg id="icon" xmlns="http://www.w3.org/2000/svg" viewBox="0 0 136 136"><defs><style>.cls-1{fill:none;stroke:#1d1d1b;stroke-linecap:round;stroke-linejoin:round;stroke-width:6px;}</style></defs><path id="Shape_179" class="cls-1" d="M80.03,99.2h-17.24v17.24"/><path id="Shape_180" class="cls-1" d="M115.27,102.57c-3.75,10.97-14.41,18.05-25.98,17.26-11.57-.79-21.16-9.25-23.39-20.63"/><path id="Shape_181" class="cls-1" d="M100.72,85.41h17.24v-17.24"/><path id="Shape_182" class="cls-1" d="M65.47,82.04c3.75-10.97,14.41-18.05,25.98-17.26,11.57,.79,21.16,9.25,23.39,20.63"/><path id="Shape_183" class="cls-1" d="M47.27,104.4c-3.56-11.74-5.3-23.96-5.16-36.23,0-21.3,4.68-39.94,11.67-50.2"/><path id="Shape_184" class="cls-1" d="M14.64,64.72H59.35"/><path id="Shape_185" class="cls-1" d="M24.87,37.14H107.61"/><path id="Shape_186" class="cls-1" d="M20.49,92.3h28.51"/><path id="Shape_187" class="cls-1" d="M78.7,17.97c5.42,9.01,8.86,19.06,10.11,29.49"/><path id="Shape_188" class="cls-1" d="M47.67,116.43c-22.32-8.59-35.84-31.35-32.7-55.06,3.14-23.7,22.11-42.17,45.89-44.66,23.78-2.49,46.17,11.65,54.15,34.19"/></svg>