<?xml version="1.0" encoding="UTF-8"?><svg id="icon" xmlns="http://www.w3.org/2000/svg" viewBox="0 0 136 136"><defs><style>.cls-1{fill:none;stroke:#1d1d1b;stroke-linecap:round;stroke-linejoin:round;stroke-width:6px;}</style></defs><g><path id="Shape_179" class="cls-1" d="M82.18,97.43h-15.65v15.65"/><path id="Shape_180" class="cls-1" d="M114.18,100.49c-3.41,9.96-13.08,16.39-23.58,15.67-10.5-.72-19.21-8.4-21.24-18.73"/><path id="Shape_181" class="cls-1" d="M100.96,84.92h15.65v-15.65"/><path id="Shape_182" class="cls-1" d="M68.97,81.86c3.41-9.96,13.08-16.39,23.58-15.67,10.5,.72,19.21,8.4,21.24,18.73"/></g><path class="cls-1" d="M116.38,57.36v-20.59c0-2.39-1.94-4.33-4.33-4.33H23.38c-2.39,0-4.33,1.94-4.33,4.33v56.24c0,2.39,1.94,4.33,4.33,4.33h31.5"/></svg>