<?xml version="1.0" encoding="UTF-8"?><svg id="icon" xmlns="http://www.w3.org/2000/svg" viewBox="0 0 136 136"><defs><style>.cls-1{fill:none;stroke:#1d1d1b;stroke-linecap:round;stroke-linejoin:round;stroke-width:6px;}</style></defs><path id="Shape_331" class="cls-1" d="M48.21,37.43v-14.75"/><path id="Shape_332" class="cls-1" d="M26.08,59.56H11.33"/><path id="Shape_333" class="cls-1" d="M63.86,43.91l10.43-10.43"/><path id="Shape_334" class="cls-1" d="M32.56,43.91l-10.43-10.43"/><path id="Shape_335" class="cls-1" d="M29.77,71.77c-4.39-6.73-4.8-15.3-1.05-22.41,3.74-7.11,11.04-11.63,19.08-11.81,8.03-.18,15.53,4,19.59,10.93"/><path id="Shape_336" class="cls-1" d="M62.96,81.69c0,1.23,.08,2.46,.23,3.69-.15-1.22-.23-2.45-.23-3.69,0-1.85,.19-3.7,.56-5.52"/><path id="Shape_337" class="cls-1" d="M92.46,111.18c15.58,.02,28.49-12.08,29.48-27.63,.99-15.55-10.28-29.19-25.74-31.14-15.46-1.95-29.77,8.45-32.68,23.75-6.83-3.27-14.97-2.03-20.51,3.13-5.54,5.16-7.36,13.19-4.58,20.23,2.78,7.04,9.59,11.67,17.16,11.66h36.88Z"/></svg>