<?xml version="1.0" encoding="UTF-8"?><svg id="icon" xmlns="http://www.w3.org/2000/svg" viewBox="0 0 136 136"><defs><style>.cls-1{fill-rule:evenodd;}.cls-1,.cls-2{fill:none;stroke:#1d1d1b;stroke-linecap:round;stroke-linejoin:round;stroke-width:6px;}</style></defs><line class="cls-2" x1="68.26" y1="99.66" x2="68.26" y2="122.34"/><line class="cls-2" x1="59.33" y1="99.65" x2="43.3" y2="115.68"/><line class="cls-2" x1="93.85" y1="115.68" x2="77.82" y2="99.65"/><path class="cls-1" d="M97.82,39.56c-1.01-1.94-2.49-3.45-4.39-4.49-1.79-.98-3.56-1.67-10.07-1.67h-30.19c-6.51,0-8.28,.69-10.07,1.67-1.9,1.04-3.37,2.55-4.39,4.49-.96,1.83-1.63,3.64-1.63,10.3l-.02,21.58c0,6.67,.68,8.48,1.63,10.3,1.01,1.94,2.49,3.45,4.39,4.49,1.79,.98,3.56,1.67,10.07,1.67h30.19c6.51,0,8.28-.69,10.07-1.67,1.9-1.04,3.37-2.55,4.39-4.49,.96-1.83,1.63-3.64,1.63-10.3l.02-21.58c0-6.67-.68-8.48-1.63-10.3Z"/><path class="cls-1" d="M79.52,60.66c0,6.22-5.56,11.26-11.26,11.26s-11.27-5.03-11.27-11.26,5.57-11.27,11.27-11.27,11.26,5.05,11.26,11.28Z"/><path class="cls-1" d="M23.19,56.05s-.62-18.48,8.44-28.37c7.99-8.73,16.45-7.9,16.45-7.9h19.83"/><path class="cls-1" d="M113.4,56.05s.62-18.48-8.44-28.37c-7.99-8.73-16.45-7.9-16.45-7.9h-19.83"/></svg>