<?xml version="1.0" encoding="UTF-8"?><svg id="icon" xmlns="http://www.w3.org/2000/svg" viewBox="0 0 136 136"><defs><style>.cls-1{fill-rule:evenodd;}.cls-1,.cls-2{fill:none;stroke:#1d1d1b;stroke-linecap:round;stroke-linejoin:round;stroke-width:6px;}</style></defs><path class="cls-1" d="M114.65,79.55c-.85,3.58-6.15,16.42-6.15,16.42-1.13,2.45-1.31,5.29-.32,7.8,2.53,6.36,6.92,11.11,6.92,11.11-13.91,4.77-23.24-5.02-23.24-5.02-8.92,5.09-19.66,7.37-31,5.6-20.21-3.15-36.39-19.7-39.16-39.96-4.04-29.52,19.22-54.69,48.14-53.88,29.92,.84,51.71,28.8,44.82,57.93Z"/><path id="Shape_173" class="cls-2" d="M56.66,61.42c-1.62-3.3-4.97-5.39-8.64-5.39s-7.03,2.09-8.64,5.39"/><path id="Shape_174" class="cls-2" d="M95.42,61.42c-1.62-3.3-4.97-5.39-8.64-5.39s-7.03,2.09-8.64,5.39"/><path id="Shape_175" class="cls-2" d="M50.71,85.13c9.45,8.62,23.92,8.62,33.38,0"/></svg>