<?xml version="1.0" encoding="UTF-8"?><svg id="icon" xmlns="http://www.w3.org/2000/svg" viewBox="0 0 136 136"><defs><style>.cls-1{fill:none;stroke:#1d1d1b;stroke-linecap:round;stroke-linejoin:round;stroke-width:6px;}</style></defs><path id="Rectangle-path_49" class="cls-1" d="M87.06,96.8h19.2v19.2h-19.2v-19.2Z"/><path id="Shape_783" class="cls-1" d="M112.66,96.8h-32v-19.2c0-3.53,2.87-6.4,6.4-6.4h19.2c3.53,0,6.4,2.87,6.4,6.4v19.2Z"/><path id="Rectangle-path_49-2" class="cls-1" d="M48.76,38.81H29.56V19.61h19.2v19.2Z"/><path id="Shape_783-2" class="cls-1" d="M23.16,38.81h32v19.2c0,3.53-2.87,6.4-6.4,6.4H29.56c-3.53,0-6.4-2.87-6.4-6.4v-19.2Z"/><path id="Shape_784" class="cls-1" d="M39.06,64.8v35.2c0,8.84,7.16,16,16,16s16-7.16,16-16V45.6c0-7.07,5.73-12.8,12.8-12.8s12.8,5.73,12.8,12.8v25.6"/></svg>