<?xml version="1.0" encoding="UTF-8"?><svg id="icon" xmlns="http://www.w3.org/2000/svg" viewBox="0 0 136 136"><defs><style>.cls-1{fill-rule:evenodd;stroke:#1d1d1b;stroke-miterlimit:10;}.cls-1,.cls-2{fill:none;stroke-width:6px;}.cls-2{stroke:#000;stroke-linecap:round;stroke-linejoin:round;}</style></defs><path class="cls-1" d="M60.66,19.6L15.21,109.33c-2.97,5.46,.94,12.14,7.1,12.14H113.7c6.16,0,10.07-6.68,7.1-12.14L74.96,19.6c-3.05-5.61-11.25-5.61-14.3,0Z"/><g><path class="cls-2" d="M44.89,88.79h23.52c1.33,0,2.42,1.08,2.42,2.42v8.57c0,.67-.54,1.21-1.21,1.21h-25.94c-.67,0-1.21-.54-1.21-1.21v-8.57c0-1.33,1.08-2.42,2.42-2.42Z"/><path class="cls-2" d="M44.57,88.34l2.99-5.26c.75-1.79,2.45-2.95,4.35-2.95h9.76c1.89,0,3.59,1.16,4.34,2.94l2.74,5.24"/><path d="M42.91,102.95h5.87c.22,0,.4,.18,.4,.4v2.72c0,.67-.54,1.21-1.21,1.21h-4.25c-.67,0-1.21-.54-1.21-1.21v-2.72c0-.22,.18-.4,.4-.4Z"/><path d="M64.49,102.98h5.87c.22,0,.4,.18,.4,.4v2.72c0,.67-.54,1.21-1.21,1.21h-4.25c-.67,0-1.21-.54-1.21-1.21v-2.72c0-.22,.18-.4,.4-.4Z"/><path class="cls-2" d="M72.36,77.87h12.9c1.93,0,3.49,1.55,3.49,3.46v6.91c0,.95-.78,1.73-1.74,1.73h-8.41"/><path class="cls-2" d="M65.04,72.33c.75-1.74,2.45-2.86,4.35-2.86h9.76c1.89,0,3.59,1.12,4.34,2.85l2.35,5.45"/><path d="M82.39,91.85h5.87c.22,0,.4,.18,.4,.4v2.72c0,.67-.54,1.21-1.21,1.21h-4.25c-.67,0-1.21-.54-1.21-1.21v-2.72c0-.22,.18-.4,.4-.4Z"/></g></svg>