<?xml version="1.0" encoding="UTF-8"?><svg id="icon" xmlns="http://www.w3.org/2000/svg" viewBox="0 0 136 136"><defs><style>.cls-1{fill:none;stroke:#1d1d1b;stroke-linecap:round;stroke-linejoin:round;stroke-width:6px;}</style></defs><g id="Internet-Networks-Servers___Worldwide-Web___network-live"><g id="Group_10"><g id="network-live"><path id="Shape_72" class="cls-1" d="M25.2,35.9c10.11-13.47,25.96-21.39,42.8-21.39s32.69,7.93,42.8,21.39"/><path id="Shape_73" class="cls-1" d="M48.03,35.9c4.56-12.99,11.8-21.4,19.97-21.4s15.42,8.41,19.97,21.4"/><path id="Shape_74" class="cls-1" d="M121.5,100.1H14.5"/><path id="Shape_75" class="cls-1" d="M14.5,35.9H121.5"/><path id="Shape_76" class="cls-1" d="M110.8,100.1c-10.11,13.47-25.96,21.39-42.8,21.39s-32.69-7.93-42.8-21.39"/><path id="Shape_77" class="cls-1" d="M87.97,100.1c-4.55,13-11.8,21.4-19.97,21.4s-15.42-8.4-19.97-21.4"/><path id="Shape_78" class="cls-1" d="M57.3,85.83V50.17"/><path id="Shape_79" class="cls-1" d="M71.57,50.17v12.13c0,8.38,2.48,16.58,7.13,23.56,4.65-6.98,7.13-15.17,7.13-23.56v-12.13"/><path id="Shape_80" class="cls-1" d="M28.77,50.17v28.53c0,3.94,3.19,7.13,7.13,7.13h7.13"/><path id="Shape_81" class="cls-1" d="M114.37,85.83h-7.13c-3.94,0-7.13-3.19-7.13-7.13v-21.4c0-3.94,3.19-7.13,7.13-7.13h7.13"/><path id="Shape_82" class="cls-1" d="M100.1,71.57h14.27"/></g></g></g></svg>