<?xml version="1.0" encoding="UTF-8"?><svg id="icon" xmlns="http://www.w3.org/2000/svg" viewBox="0 0 136 136"><defs><style>.cls-1{fill-rule:evenodd;}.cls-1,.cls-2{fill:none;stroke:#1d1d1b;stroke-linecap:round;stroke-linejoin:round;stroke-width:6px;}</style></defs><line class="cls-2" x1="57.3" y1="116.05" x2="79.21" y2="116.05"/><path class="cls-1" d="M102.91,43.79c-1.19-2.28-2.92-4.05-5.14-5.26-2.1-1.15-4.17-1.96-11.8-1.96H50.56c-7.64,0-9.71,.81-11.8,1.96-2.22,1.22-3.95,2.99-5.14,5.26-1.12,2.15-1.91,4.27-1.91,12.08l-.02,25.3c0,7.82,.79,9.94,1.91,12.08,1.19,2.28,2.92,4.05,5.14,5.26,2.1,1.15,4.17,1.96,11.81,1.96h35.4c7.64,0,9.71-.81,11.8-1.96,2.22-1.22,3.95-2.99,5.14-5.26,1.12-2.15,1.91-4.27,1.91-12.08l.02-25.3c0-7.82-.79-9.94-1.91-12.08Z"/><path class="cls-1" d="M81.46,68.53c0,7.3-6.51,13.2-13.2,13.2s-13.22-5.9-13.22-13.2,6.53-13.22,13.22-13.22,13.2,5.93,13.2,13.22Z"/><path class="cls-1" d="M15.4,63.13s-.72-21.67,9.89-33.26c9.37-10.23,19.29-9.26,19.29-9.26h23.25"/><path class="cls-1" d="M121.19,63.13s.72-21.67-9.89-33.26c-9.37-10.23-19.29-9.26-19.29-9.26h-23.25"/></svg>