<?xml version="1.0" encoding="UTF-8"?><svg id="icon" xmlns="http://www.w3.org/2000/svg" viewBox="0 0 136 136"><defs><style>.cls-1{fill:none;stroke:#1d1d1b;stroke-linecap:round;stroke-linejoin:round;stroke-width:6px;}</style></defs><path class="cls-1" d="M104.73,64.85L70.97,31.08c-3.11-3.11-8.15-3.11-11.26,0l-16.88,16.88c-8.34,8.34-11.08,20.16-8.22,30.8l-.03-.03-8.63,8.63c-3.11,3.11-3.11,8.15,0,11.26l11.26,11.26c3.11,3.11,8.15,3.11,11.26,0l8.63-8.63-.03-.03c10.63,2.86,22.45,.12,30.79-8.22l16.88-16.88c3.11-3.11,3.11-8.15,0-11.26Z"/><path id="Shape_1008" class="cls-1" d="M76.59,36.71l16.88-16.88"/><path id="Shape_1009" class="cls-1" d="M99.1,59.22l16.88-16.88"/><path id="Shape_1010" class="cls-1" d="M31.57,104.24l-11.26,11.26"/></svg>