<?xml version="1.0" encoding="UTF-8"?><svg id="icon" xmlns="http://www.w3.org/2000/svg" viewBox="0 0 136 136"><defs><style>.cls-1{stroke-width:5px;}.cls-1,.cls-2,.cls-3{fill:none;}.cls-1,.cls-3{stroke:#000;stroke-linecap:round;stroke-linejoin:round;}.cls-2{fill-rule:evenodd;stroke:#1d1d1b;stroke-miterlimit:10;}.cls-2,.cls-3{stroke-width:6px;}</style></defs><path class="cls-2" d="M60.79,19.6L15.33,109.33c-2.97,5.46,.94,12.14,7.1,12.14H113.82c6.16,0,10.07-6.68,7.1-12.14L75.08,19.6c-3.05-5.61-11.25-5.61-14.3,0Z"/><path id="Shape_265" class="cls-1" d="M58.86,92.24c.4,0,.73,.33,.73,.73"/><path id="Shape_266" class="cls-1" d="M58.13,92.97c0-.4,.33-.73,.73-.73"/><path id="Shape_267" class="cls-1" d="M58.86,93.69c-.4,0-.73-.33-.73-.73"/><path id="Shape_268" class="cls-1" d="M59.59,92.97c0,.4-.33,.73-.73,.73"/><path id="Shape_269" class="cls-1" d="M67.59,92.24c.4,0,.73,.33,.73,.73"/><path id="Shape_270" class="cls-1" d="M66.86,92.97c0-.4,.33-.73,.73-.73"/><path id="Shape_271" class="cls-1" d="M67.59,93.69c-.4,0-.73-.33-.73-.73"/><path id="Shape_272" class="cls-1" d="M68.31,92.97c0,.4-.33,.73-.73,.73"/><path id="Shape_273" class="cls-1" d="M76.31,92.24c.4,0,.73,.33,.73,.73"/><path id="Shape_274" class="cls-1" d="M75.59,92.97c0-.4,.33-.73,.73-.73"/><path id="Shape_275" class="cls-1" d="M76.31,93.69c-.4,0-.73-.33-.73-.73"/><path id="Shape_276" class="cls-1" d="M77.04,92.97c0,.4-.33,.73-.73,.73"/><path id="Shape_277" class="cls-1" d="M55.95,100.97c.4,0,.73,.33,.73,.73"/><path id="Shape_278" class="cls-1" d="M55.22,101.69c0-.4,.33-.73,.73-.73"/><path id="Shape_279" class="cls-1" d="M55.95,102.42c-.4,0-.73-.33-.73-.73"/><path id="Shape_280" class="cls-1" d="M56.68,101.69c0,.4-.33,.73-.73,.73"/><path id="Shape_281" class="cls-1" d="M64.68,100.97c.4,0,.73,.33,.73,.73"/><path id="Shape_282" class="cls-1" d="M63.95,101.69c0-.4,.33-.73,.73-.73"/><path id="Shape_283" class="cls-1" d="M64.68,102.42c-.4,0-.73-.33-.73-.73"/><path id="Shape_284" class="cls-1" d="M65.4,101.69c0,.4-.33,.73-.73,.73"/><path id="Shape_285" class="cls-1" d="M73.4,100.97c.4,0,.73,.33,.73,.73"/><path id="Shape_286" class="cls-1" d="M72.68,101.69c0-.4,.33-.73,.73-.73"/><path id="Shape_287" class="cls-1" d="M73.4,102.42c-.4,0-.73-.33-.73-.73"/><path id="Shape_288" class="cls-1" d="M74.13,101.69c0,.4-.33,.73-.73,.73"/><path id="Shape_289" class="cls-3" d="M61.77,74.06c0,.49,.03,.97,.09,1.45-.06-.48-.09-.97-.09-1.45,0-.73,.08-1.46,.22-2.18"/><path id="Shape_290" class="cls-3" d="M73.4,85.69c6.15,0,11.24-4.76,11.63-10.9,.39-6.13-4.06-11.51-10.15-12.28-6.1-.77-11.74,3.33-12.89,9.37-2.69-1.29-5.9-.8-8.09,1.23-2.19,2.04-2.9,5.2-1.81,7.98,1.1,2.78,3.78,4.6,6.77,4.6h14.54Z"/></svg>