<?xml version="1.0" encoding="UTF-8"?><svg id="icon" xmlns="http://www.w3.org/2000/svg" viewBox="0 0 136 136"><defs><style>.cls-1{fill:none;stroke:#1d1d1b;stroke-linecap:round;stroke-linejoin:round;stroke-width:6px;}</style></defs><path id="Shape_256" class="cls-1" d="M21.58,98.33l15.94,15.94c2.93,2.93,7.6,3.03,10.42,.21L114.26,48.16c2.82-2.82,2.72-7.48-.21-10.42l-15.94-15.94c-2.93-2.93-7.6-3.03-10.42-.21L23.12,86.16"/><path id="Shape_256-2" class="cls-1" d="M114.05,37.74l-15.94-15.94c-2.93-2.93-7.6-3.03-10.42-.21L21.36,87.91c-2.82,2.82-2.72,7.48,.21,10.42l15.94,15.94c2.93,2.93,7.6,3.03,10.42,.21L112.51,49.91"/><path id="Shape_257" class="cls-1" d="M93.43,47.73l10.63,10.63"/><path id="Shape_258" class="cls-1" d="M78.12,63.04l10.63,10.63"/><path id="Shape_259" class="cls-1" d="M62.82,78.34l10.63,10.63"/><path id="Shape_260" class="cls-1" d="M47.51,93.65l10.63,10.63"/></svg>