<?xml version="1.0" encoding="UTF-8"?><svg id="icon" xmlns="http://www.w3.org/2000/svg" viewBox="0 0 136 136"><defs><style>.cls-1{fill:none;stroke:#1d1d1b;stroke-linecap:round;stroke-linejoin:round;stroke-width:6px;}</style></defs><g id="Phones-Mobile-Devices___Charging_Battery___charging-cable"><g id="Group_177"><g id="charging-cable"><path id="Rectangle-path_47" class="cls-1" d="M26.2,19.79h19.24v19.24H26.2V19.79Z"/><path id="Shape_754" class="cls-1" d="M51.86,39.03H19.79v19.24c0,3.54,2.87,6.41,6.41,6.41h19.24c3.54,0,6.41-2.87,6.41-6.41v-19.24Z"/><path id="Rectangle-path_48" class="cls-1" d="M96.76,32.61h12.83v12.83h-12.83v-12.83Z"/><path id="Shape_755" class="cls-1" d="M116,45.44h-25.66v12.83c0,3.54,2.87,6.41,6.41,6.41h12.83c3.54,0,6.41-2.87,6.41-6.41v-12.83Z"/><path id="Shape_756" class="cls-1" d="M103.17,64.69v17.64c0,18.6-15.08,33.67-33.67,33.67s-33.67-15.08-33.67-33.67v-17.64"/><path id="Oval_46" class="cls-1" d="M67.89,116c12.4,0,22.45-10.05,22.45-22.45s-10.05-22.45-22.45-22.45-22.45,10.05-22.45,22.45,10.05,22.45,22.45,22.45Z"/></g></g></g></svg>