<?xml version="1.0" encoding="UTF-8"?><svg id="icon" xmlns="http://www.w3.org/2000/svg" viewBox="0 0 136 136"><defs><style>.cls-1{fill:none;stroke:#1d1d1b;stroke-linecap:round;stroke-linejoin:round;stroke-width:6px;}</style></defs><g id="Phones-Mobile-Devices___SIM-Card___sim-card"><g id="Group_166"><g id="sim-card"><path id="Shape_724" class="cls-1" d="M107.09,44.35c0-1.56-.56-3.06-1.57-4.24l-19.29-18.68c-1.23-1.45-3.04-2.29-4.95-2.3H35.42c-3.6,0-6.52,2.92-6.52,6.52V110.35c0,3.6,2.92,6.52,6.52,6.52H100.58c3.6,0,6.52-2.92,6.52-6.52V44.35Z"/><path id="Rectangle-path_43" class="cls-1" d="M48.45,84.29c0-3.6,2.92-6.52,6.52-6.52h19.55c3.6,0,6.52,2.92,6.52,6.52v13.03c0,3.6-2.92,6.52-6.52,6.52h-19.55c-3.6,0-6.52-2.92-6.52-6.52v-13.03Z"/><path id="Shape_725" class="cls-1" d="M48.45,90.81h6.52"/><path id="Shape_726" class="cls-1" d="M81.03,90.81h-6.52"/><path id="Shape_727" class="cls-1" d="M48.45,19.13v19.55"/><path id="Shape_728" class="cls-1" d="M68,19.13v19.55"/></g></g></g></svg>